<?xml version="1.0" encoding="UTF-8" standalone="no"?>
<!-- Created with Inkscape (http://www.inkscape.org/) -->

<svg
   xmlns:dc="http://purl.org/dc/elements/1.1/"
   xmlns:cc="http://creativecommons.org/ns#"
   xmlns:rdf="http://www.w3.org/1999/02/22-rdf-syntax-ns#"
   xmlns:svg="http://www.w3.org/2000/svg"
   xmlns="http://www.w3.org/2000/svg"
   xmlns:sodipodi="http://sodipodi.sourceforge.net/DTD/sodipodi-0.dtd"
   xmlns:inkscape="http://www.inkscape.org/namespaces/inkscape"
   width="169.98341mm"
   height="118.40001mm"
   viewBox="0 0 169.98341 118.40001"
   version="1.1"
   id="svg946"
   inkscape:version="0.92.4 (5da689c313, 2019-01-14)"
   sodipodi:docname="board_black.svg">
  <defs
     id="defs940">
    <circle
       style="fill:#ff0000;fill-opacity:0.2436548;fill-rule:evenodd;stroke-width:0.38241836"
       id="path1497-1"
       cx="266.19492"
       cy="-105"
       r="132.48065"
       transform="rotate(90)" />
  </defs>
  <sodipodi:namedview
     id="base"
     pagecolor="#ffffff"
     bordercolor="#666666"
     borderopacity="1.0"
     inkscape:pageopacity="0.0"
     inkscape:pageshadow="2"
     inkscape:zoom="1.4142136"
     inkscape:cx="331.81055"
     inkscape:cy="238.11944"
     inkscape:document-units="mm"
     inkscape:current-layer="layer1"
     showgrid="false"
     inkscape:window-width="1920"
     inkscape:window-height="1017"
     inkscape:window-x="1912"
     inkscape:window-y="-8"
     inkscape:window-maximized="1" />
  <metadata
     id="metadata943">
    <rdf:RDF>
      <cc:Work
         rdf:about="">
        <dc:format>image/svg+xml</dc:format>
        <dc:type
           rdf:resource="http://purl.org/dc/dcmitype/StillImage" />
        <dc:title></dc:title>
      </cc:Work>
    </rdf:RDF>
  </metadata>
  <g
     inkscape:label="Layer 1"
     inkscape:groupmode="layer"
     id="layer1"
     transform="translate(-20.008081,-108.84245)">
    <path
       style="fill:#3a3a3a;fill-opacity:1;stroke:none;stroke-width:1.20400071;stroke-miterlimit:4;stroke-dasharray:none;stroke-opacity:1"
       d="m 39.418781,108.84245 -19.4107,19.4107 v 79.57861 l 19.4107,19.4107 H 170.58132 l 19.41018,-19.41019 v -79.57963 l -19.41018,-19.41019 z"
       id="rect1153"
       inkscape:connector-curvature="0" />
    <g
       aria-label="Theterrifying"
       transform="translate(0.16389131)"
       style="font-style:normal;font-weight:normal;font-size:5.64444447px;line-height:1.25;font-family:sans-serif;text-align:center;letter-spacing:2.45797944px;word-spacing:0px;text-anchor:middle;fill:#ffffff;fill-opacity:1;stroke:none;stroke-width:0.26458332"
       id="text816-8">
      <path
         d="m 84.408698,132.35584 q -0.28699,-0.19126 -0.322775,-0.45127 -0.03348,-0.24324 0.140545,-0.43812 0.184872,-0.2092 0.520376,-0.25537 l 2.143033,-0.29494 q 0.130007,-0.0179 0.277521,-0.0638 0.147514,-0.0459 0.206958,-0.0798 l 0.118899,0.86392 -0.04252,0.002 -0.004,-0.0294 q -0.04675,-0.3397 -0.317426,-0.44346 -0.130278,-0.0462 -0.298607,-0.0273 l -0.410993,0.0566 0.334187,2.42821 q 0.0192,0.10846 0.105078,0.17356 0.09007,0.0645 0.19911,0.0495 l 0.05452,-0.007 0.0058,0.0419 -1.505575,0.20721 -0.0058,-0.0419 0.05452,-0.008 q 0.109039,-0.015 0.174138,-0.10088 0.06929,-0.0865 0.05906,-0.19188 l -0.334764,-2.4324 -0.784241,0.10793 q -0.234853,0.0323 -0.37444,0.16691 -0.162441,0.15483 -0.135313,0.35194 0.02655,0.19291 0.185994,0.3889 z"
         style="font-style:normal;font-variant:normal;font-weight:normal;font-stretch:normal;font-size:4.23333311px;font-family:'Cinzel Decorative Black';-inkscape-font-specification:'Cinzel Decorative Black, ';letter-spacing:0px;fill:#ffffff;fill-opacity:1"
         id="path2159"
         inkscape:connector-curvature="0" />
      <path
         d="m 89.992187,133.48966 q 0.109305,-0.0129 0.17603,-0.0975 0.07093,-0.0851 0.06221,-0.19492 l -0.125763,-1.06363 -1.130889,0.13372 0.125266,1.05942 q 0.0226,0.15505 0.16187,0.21532 0.06704,0.0262 0.138506,0.0177 l 0.05465,-0.006 0.005,0.042 -1.509252,0.17845 -0.005,-0.042 0.05465,-0.006 q 0.109305,-0.0129 0.176031,-0.0975 0.07043,-0.0893 0.06171,-0.19913 l -0.275884,-2.33324 q -0.01713,-0.10881 -0.105953,-0.17504 -0.08462,-0.0667 -0.193926,-0.0538 l -0.05465,0.006 -0.005,-0.042 1.509253,-0.17845 0.005,0.042 -0.05465,0.006 q -0.109305,0.0129 -0.180234,0.098 -0.06673,0.0846 -0.05801,0.19442 l 0.125763,1.06363 1.130889,-0.13372 -0.125764,-1.06362 q -0.01713,-0.10881 -0.105953,-0.17504 -0.08462,-0.0667 -0.193925,-0.0538 l -0.05465,0.006 -0.005,-0.042 1.509253,-0.17845 0.005,0.042 -0.05465,0.006 q -0.151345,0.0179 -0.215812,0.15766 -0.02618,0.067 -0.02193,0.13901 l 0.275387,2.32904 q 0.01713,0.10881 0.102246,0.17974 0.08882,0.0662 0.198129,0.0533 l 0.05465,-0.006 0.005,0.042 -1.509253,0.17845 -0.005,-0.042 z"
         style="font-size:4.23333311px;letter-spacing:1.84150004px;fill:#ffffff;fill-opacity:1"
         id="path2161"
         inkscape:connector-curvature="0" />
      <path
         d="m 91.844477,133.29912 q 0.109655,-0.01 0.178985,-0.092 0.07318,-0.0871 0.06789,-0.1971 l -0.202646,-2.3365 q -0.01592,-0.13459 -0.132528,-0.20521 -0.07187,-0.0448 -0.160437,-0.0371 l -0.05483,0.005 -0.0037,-0.0422 1.868353,-0.16204 q 0.181352,-0.0157 0.317969,-0.0573 0.140835,-0.042 0.177329,-0.0621 l 0.07535,0.86881 -0.04218,0.004 -0.0029,-0.0337 q -0.02926,-0.3374 -0.285583,-0.45115 -0.123943,-0.0572 -0.288791,-0.0472 l -0.611538,0.053 0.102055,1.17668 0.459707,-0.0399 q 0.202075,-0.0218 0.317626,-0.15927 0.115186,-0.14172 0.09763,-0.34416 l -0.0015,-0.0169 0.04218,-0.004 0.101688,1.17246 -0.04218,0.004 -0.0018,-0.0211 q -0.01719,-0.19822 -0.15469,-0.31377 -0.137865,-0.11977 -0.336453,-0.1068 l -0.463925,0.0402 0.0984,1.13451 0.518752,-0.045 q 0.307878,-0.0267 0.5265,-0.24963 0.218622,-0.22293 0.284533,-0.58983 l 0.04218,-0.004 -0.0754,0.99236 -2.467238,0.21398 -0.0037,-0.0422 z"
         style="font-size:4.23333311px;letter-spacing:1.84150004px;fill:#ffffff;fill-opacity:1"
         id="path2163"
         inkscape:connector-curvature="0" />
      <path
         d="m 98.08024,130.13297 0.127675,2.44778 q 0.01,0.10969 0.09003,0.18182 0.08429,0.0719 0.19421,0.0662 l 0.05496,-0.003 0.0022,0.0423 -1.517703,0.0792 -0.0022,-0.0423 0.05496,-0.003 q 0.109917,-0.006 0.182045,-0.0858 0.07635,-0.0803 0.07507,-0.18619 l -0.127896,-2.452 -0.418531,0.0218 q -0.253434,0.0175 -0.389455,0.17292 -0.13624,0.15123 -0.12301,0.40489 l 0.0015,0.0296 -0.04205,0.006 -0.04543,-0.87089 q 0.06051,0.0223 0.214025,0.0397 0.157744,0.0172 0.288799,0.0104 l 1.872821,-0.0977 q 0.131055,-0.007 0.281925,-0.0401 0.15087,-0.0333 0.212961,-0.062 l 0.04543,0.87088 -0.0425,-0.002 -0.0015,-0.0296 q -0.01786,-0.34243 -0.278794,-0.46871 -0.125907,-0.057 -0.295231,-0.0524 z"
         style="font-style:normal;font-variant:normal;font-weight:normal;font-stretch:normal;font-size:4.23333311px;font-family:'Cinzel Decorative Black';-inkscape-font-specification:'Cinzel Decorative Black, ';letter-spacing:0px;fill:#ffffff;fill-opacity:1"
         id="path2165"
         inkscape:connector-curvature="0" />
      <path
         d="m 99.441499,132.78376 q 0.110013,-0.003 0.183798,-0.082 0.07788,-0.0829 0.07868,-0.19305 l -0.07319,-2.34413 q -0.0085,-0.13526 -0.120982,-0.21222 -0.06929,-0.0487 -0.158142,-0.0459 l -0.05501,0.002 -0.0013,-0.0423 1.874447,-0.0585 q 0.18195,-0.006 0.32065,-0.0397 0.14294,-0.0341 0.1805,-0.0522 l 0.0272,0.87164 -0.0423,0.001 -0.001,-0.0339 q -0.0106,-0.3385 -0.26021,-0.46624 -0.12059,-0.064 -0.28574,-0.0631 l -0.61353,0.0191 0.0369,1.18053 0.46121,-0.0144 q 0.20297,-0.0106 0.32595,-0.14147 0.12284,-0.13514 0.1165,-0.33824 l -5.3e-4,-0.0169 0.0423,-0.001 0.0367,1.17629 -0.0423,0.001 -6.6e-4,-0.0212 q -0.006,-0.19887 -0.13711,-0.32184 -0.13103,-0.12721 -0.33003,-0.12523 l -0.46544,0.0145 0.0355,1.13821 0.52045,-0.0162 q 0.30888,-0.01 0.53949,-0.22015 0.23061,-0.2105 0.3167,-0.57319 l 0.0423,-0.001 -0.13014,0.98667 -2.475294,0.0773 -0.0013,-0.0423 z"
         style="font-style:normal;font-variant:normal;font-weight:normal;font-stretch:normal;font-size:4.23333311px;font-family:'Cinzel Decorative Black';-inkscape-font-specification:'Cinzel Decorative Black, ';letter-spacing:0px;fill:#ffffff;fill-opacity:1"
         id="path2167"
         inkscape:connector-curvature="0" />
      <path
         d="m 104.91399,130.21772 q 0.0691,0.14756 0.0705,0.30842 0.001,0.15663 -0.0314,0.27969 -0.0328,0.11883 -0.10371,0.238 -0.15436,0.25539 -0.53482,0.31806 0.16551,0.0451 0.2978,0.16245 0.14076,0.11728 0.26541,0.32784 0.32233,0.53901 0.49306,0.69412 0.12805,0.11739 0.32281,0.11989 l 3.8e-4,0.0423 -0.52914,0.005 q -0.55032,0.005 -0.78847,-0.11573 -0.3402,-0.17053 -0.48792,-0.59256 -0.0392,-0.12242 -0.07,-0.25762 -0.0266,-0.13523 -0.0483,-0.19431 -0.0175,-0.0633 -0.0433,-0.11391 -0.0259,-0.0548 -0.0558,-0.0842 -0.0513,-0.0503 -0.11921,-0.0751 l -3.8e-4,-0.0423 0.0677,-6.1e-4 q 0.24553,-0.002 0.36628,-0.22765 0.0624,-0.1191 0.0739,-0.25467 0.0157,-0.13985 0.0154,-0.17371 -3e-4,-0.0339 -3.8e-4,-0.0423 -0.0346,-0.55852 -0.48757,-0.55447 l -0.18626,0.002 0.0217,2.43407 q 9.9e-4,0.11006 0.0821,0.18977 0.0811,0.0755 0.19117,0.0745 l 0.0508,-4.5e-4 3.8e-4,0.0423 -1.51971,0.0136 -3.8e-4,-0.0423 0.055,-4.9e-4 q 0.11007,-9.8e-4 0.18558,-0.0779 0.0798,-0.0769 0.083,-0.18702 l -0.021,-2.3494 q -0.006,-0.15659 -0.13754,-0.23162 -0.0638,-0.0333 -0.13576,-0.0326 l -0.055,4.9e-4 -3.7e-4,-0.0423 1.65516,-0.0148 q 0.8297,-0.007 1.05822,0.45622 z"
         style="font-style:normal;font-variant:normal;font-weight:normal;font-stretch:normal;font-size:4.23333311px;font-family:'Cinzel Decorative Black';-inkscape-font-specification:'Cinzel Decorative Black, ';letter-spacing:0px;fill:#ffffff;fill-opacity:1"
         id="path2169"
         inkscape:connector-curvature="0" />
      <path
         d="m 108.33134,130.25692 q 0.0655,0.14918 0.063,0.31002 -0.002,0.15662 -0.0381,0.27886 -0.0357,0.118 -0.10943,0.23543 -0.16048,0.25158 -0.54234,0.30505 0.16438,0.0491 0.29379,0.16959 0.13788,0.12064 0.25741,0.33415 0.30922,0.54664 0.47615,0.70583 0.12518,0.12045 0.31983,0.12765 l -6.4e-4,0.0423 -0.52911,-0.008 q -0.55027,-0.008 -0.78544,-0.13473 -0.33599,-0.1787 -0.47346,-0.60417 -0.0362,-0.12334 -0.0638,-0.25924 -0.0233,-0.13584 -0.0436,-0.19542 -0.016,-0.0637 -0.0406,-0.11493 -0.0246,-0.0554 -0.0537,-0.0855 -0.05,-0.0516 -0.11736,-0.078 l 6.4e-4,-0.0423 0.0677,0.001 q 0.24551,0.004 0.37168,-0.21873 0.0653,-0.11756 0.08,-0.25281 0.0191,-0.13943 0.0196,-0.17329 5.2e-4,-0.0339 6.5e-4,-0.0423 -0.0211,-0.55919 -0.47404,-0.56608 l -0.18625,-0.003 -0.037,2.43388 q -0.002,0.11006 0.0775,0.1917 0.0793,0.0774 0.18932,0.0791 l 0.0508,7.8e-4 -6.4e-4,0.0423 -1.51959,-0.0231 6.4e-4,-0.0423 0.055,8.4e-4 q 0.11005,0.002 0.1874,-0.0734 0.0816,-0.075 0.0875,-0.18496 l 0.0358,-2.34922 q -0.002,-0.15668 -0.1319,-0.23487 -0.063,-0.0348 -0.13494,-0.0359 l -0.055,-8.4e-4 6.5e-4,-0.0423 1.65504,0.0252 q 0.82964,0.0126 1.04689,0.48165 z"
         style="font-style:normal;font-variant:normal;font-weight:normal;font-stretch:normal;font-size:4.23333311px;font-family:'Cinzel Decorative Black';-inkscape-font-specification:'Cinzel Decorative Black, ';letter-spacing:0px;fill:#ffffff;fill-opacity:1"
         id="path2171"
         inkscape:connector-curvature="0" />
      <path
         d="m 108.97592,132.73304 q 0.11001,0.004 0.18873,-0.0699 0.0831,-0.0777 0.091,-0.18754 l 0.0792,-2.34816 q -5.2e-4,-0.11015 -0.0783,-0.18902 -0.0736,-0.0787 -0.1836,-0.0824 l -0.055,-0.002 0.001,-0.0423 1.5189,0.0512 -0.001,0.0423 -0.055,-0.002 q -0.11,-0.004 -0.19296,0.0697 -0.0787,0.0736 -0.0867,0.18345 l -0.0792,2.34817 q -0.004,0.11 0.074,0.1931 0.0778,0.0789 0.18782,0.0826 l 0.055,0.002 -10e-4,0.0423 -1.5189,-0.0512 0.001,-0.0423 z"
         style="font-style:normal;font-variant:normal;font-weight:normal;font-stretch:normal;font-size:4.23333311px;font-family:'Cinzel Decorative Black';-inkscape-font-specification:'Cinzel Decorative Black, ';letter-spacing:0px;fill:#ffffff;fill-opacity:1"
         id="path2173"
         inkscape:connector-curvature="0" />
      <path
         d="m 112.01702,130.14693 -0.0588,1.17964 0.46086,0.023 q 0.20316,0.006 0.33633,-0.11464 0.13337,-0.12475 0.14328,-0.32347 l 0.001,-0.0211 0.0423,0.002 -0.0586,1.17541 -0.0423,-0.002 0.001,-0.0211 q 0.01,-0.19872 -0.11061,-0.33188 -0.12031,-0.1374 -0.31882,-0.15153 l -0.46509,-0.0232 -0.052,1.04434 q -0.005,0.10993 0.0708,0.19427 0.0765,0.0801 0.18647,0.0856 l 0.055,0.003 -0.002,0.0423 -1.51789,-0.0757 0.002,-0.0423 0.055,0.003 q 0.10993,0.005 0.18983,-0.0668 0.0843,-0.0763 0.094,-0.18605 l 0.11674,-2.34236 q 10e-4,-0.11014 -0.0753,-0.19025 -0.0721,-0.0841 -0.18203,-0.0896 l -0.055,-0.003 0.002,-0.0423 1.87305,0.0934 q 0.1818,0.009 0.32281,-0.0136 0.141,-0.0226 0.18412,-0.0374 l -0.0434,0.87098 -0.0423,-0.002 0.002,-0.0338 q 0.0168,-0.33825 -0.22163,-0.48577 -0.11502,-0.0735 -0.2797,-0.086 z"
         style="font-style:normal;font-variant:normal;font-weight:normal;font-stretch:normal;font-size:4.23333311px;font-family:'Cinzel Decorative Black';-inkscape-font-specification:'Cinzel Decorative Black, ';letter-spacing:0px;fill:#ffffff;fill-opacity:1"
         id="path2175"
         inkscape:connector-curvature="0" />
      <path
         d="m 116.71191,130.27437 -0.0591,-0.004 q -0.12668,-0.009 -0.25001,0.0544 -0.1191,0.0637 -0.19414,0.1645 l -0.92007,1.24621 -0.0745,1.05146 q -0.008,0.10979 0.0626,0.19541 0.0748,0.0817 0.18887,0.0898 l 0.0507,0.004 -0.003,0.0422 -1.51175,-0.10707 0.003,-0.0422 0.0549,0.004 q 0.10979,0.008 0.19118,-0.0629 0.0856,-0.0703 0.0976,-0.17982 l 0.0748,-1.05569 -0.71353,-1.3704 q -0.0939,-0.17216 -0.27582,-0.24022 -0.0618,-0.0256 -0.12518,-0.0301 l -0.0591,-0.004 0.003,-0.0422 1.62998,0.11545 -0.003,0.0422 -0.0507,-0.004 q -0.0929,-0.007 -0.14956,0.0743 -0.0328,0.0444 -0.0361,0.0908 -0.003,0.0422 0.0194,0.0863 l 0.50464,1.08399 0.67351,-1.00055 q 0.0283,-0.0404 0.0313,-0.0827 0.003,-0.0422 -0.0233,-0.0908 -0.0486,-0.0926 -0.1373,-0.0988 l -0.0507,-0.004 0.003,-0.0422 1.05147,0.0745 z"
         style="font-style:normal;font-variant:normal;font-weight:normal;font-stretch:normal;font-size:4.23333311px;font-family:'Cinzel Decorative Black';-inkscape-font-specification:'Cinzel Decorative Black, ';letter-spacing:0px;fill:#ffffff;fill-opacity:1"
         id="path2177"
         inkscape:connector-curvature="0" />
      <path
         d="m 116.48962,133.15354 q 0.10964,0.01 0.19227,-0.0594 0.0872,-0.073 0.10115,-0.18229 l 0.20742,-2.34032 q 0.005,-0.11001 -0.0679,-0.19302 -0.0692,-0.0826 -0.17882,-0.0923 l -0.0548,-0.005 0.004,-0.0422 1.51383,0.13417 -0.004,0.0422 -0.0548,-0.005 q -0.10964,-0.01 -0.19648,0.0591 -0.0826,0.0692 -0.0966,0.17844 l -0.20741,2.34033 q -0.01,0.10963 0.0633,0.19685 0.0734,0.083 0.18303,0.0927 l 0.0548,0.005 -0.004,0.0422 -1.51383,-0.13417 0.004,-0.0422 z"
         style="font-style:normal;font-variant:normal;font-weight:normal;font-stretch:normal;font-size:4.23333311px;font-family:'Cinzel Decorative Black';-inkscape-font-specification:'Cinzel Decorative Black, ';letter-spacing:0px;fill:#ffffff;fill-opacity:1"
         id="path2179"
         inkscape:connector-curvature="0" />
      <path
         d="m 121.93151,130.80815 q -0.10522,-0.0114 -0.1892,0.0561 -0.0835,0.0633 -0.0992,0.16807 l -0.236,2.17161 q -0.0338,0.31144 -0.01,0.48435 l 0.006,0.0603 -0.0379,-0.004 -1.82106,-2.01193 -0.15596,1.43512 q -0.0165,0.15151 0.10623,0.23723 0.0553,0.0401 0.12259,0.0474 l 0.08,0.009 -0.005,0.0421 -1.54033,-0.1674 0.005,-0.0421 0.08,0.009 q 0.10521,0.0114 0.18874,-0.0519 0.084,-0.0675 0.0959,-0.17695 l 0.23737,-2.18424 q 0.032,-0.2946 0.009,-0.47172 l -0.006,-0.0603 0.0421,0.005 1.82106,2.01192 0.1555,-1.4309 q 0.008,-0.10988 -0.0603,-0.18966 -0.0675,-0.084 -0.17274,-0.0954 l -0.08,-0.009 0.005,-0.0421 1.54033,0.1674 -0.005,0.0421 z"
         style="font-style:normal;font-variant:normal;font-weight:normal;font-stretch:normal;font-size:4.23333311px;font-family:'Cinzel Decorative Black';-inkscape-font-specification:'Cinzel Decorative Black, ';letter-spacing:0px;fill:#ffffff;fill-opacity:1"
         id="path2181"
         inkscape:connector-curvature="0" />
      <path
         d="m 123.48457,134.02328 q -0.75087,-0.10202 -1.14024,-0.56932 -0.3846,-0.47093 -0.28771,-1.18405 0.0975,-0.71731 0.59682,-1.0596 0.49936,-0.34228 1.28798,-0.23514 0.33978,0.0462 0.69255,0.15391 0.35335,0.10354 0.53128,0.20889 l -0.1508,0.79551 -0.0378,-0.005 q -0.11156,-0.81407 -0.85404,-0.91494 -0.9648,-0.13109 -1.14831,1.21964 -0.0832,0.61244 0.0683,0.97481 0.15575,0.36294 0.56265,0.41822 0.22232,0.0302 0.40188,-0.065 0.18432,-0.0988 0.21281,-0.30859 l 0.0823,-0.57412 q 0.0125,-0.0923 -0.0399,-0.14641 -0.0477,-0.0577 -0.14837,-0.0714 l -0.0671,-0.009 0.006,-0.0419 1.40945,0.1915 -0.006,0.0419 -0.0629,-0.009 q -0.10487,-0.0143 -0.16624,0.0287 -0.0608,0.0387 -0.0691,0.13159 l -0.094,0.69214 q -0.27538,0.26591 -0.91367,0.34153 -0.3302,0.0406 -0.66578,-0.005 z"
         style="font-style:normal;font-variant:normal;font-weight:normal;font-stretch:normal;font-size:4.23333311px;font-family:'Cinzel Decorative Black';-inkscape-font-specification:'Cinzel Decorative Black, ';letter-spacing:0px;fill:#ffffff;fill-opacity:1"
         id="path2183"
         inkscape:connector-curvature="0" />
    </g>
    <g
       aria-label="OUIJA"
       style="font-style:normal;font-weight:normal;font-size:5.64444447px;line-height:1.25;font-family:sans-serif;text-align:center;letter-spacing:0px;word-spacing:0px;text-anchor:middle;fill:#000000;fill-opacity:1;stroke:none;stroke-width:0.26458332"
       id="text816">
      <path
         d="m 89.439055,139.84999 q -0.40914,-0.54742 -0.477273,-1.19862 -0.09398,-0.89821 0.520945,-1.53007 0.367778,-0.39035 0.951094,-0.56488 0.35341,-0.0937 0.566734,-0.11605 0.224553,-0.0235 0.472735,-0.0381 0.247007,-0.0259 0.733837,0.0708 0.498058,0.0954 0.969482,0.26178 0.470249,0.15511 0.900805,0.47328 0.441784,0.31699 0.789568,0.71192 0.747527,0.85253 0.883792,2.15494 0.19735,1.88623 -1.087456,3.16706 -1.274753,1.26842 -3.576412,1.50924 -2.301659,0.24081 -3.834981,-0.74517 -1.533323,-0.98597 -1.727149,-2.83853 -0.159759,-1.52695 0.669414,-2.7147 0.839225,-1.20016 2.339161,-1.61815 l 0.07911,0.10523 q -0.40982,0.53095 -0.59066,1.51466 -0.170788,0.97131 -0.05567,2.07162 0.186777,1.78518 1.018115,2.78785 0.831338,1.00267 2.021464,0.87815 1.201354,-0.12569 1.817721,-1.17767 0.616368,-1.05198 0.446037,-2.67999 -0.108073,-1.03293 -0.485744,-1.82201 -0.366443,-0.79025 -0.913974,-1.14158 -0.547532,-0.35133 -1.108912,-0.29259 -0.729794,0.0763 -1.076947,0.55534 -0.40747,0.55341 -0.328765,1.30566 0.04464,0.42665 0.218654,0.89651 z"
         style="font-style:normal;font-variant:normal;font-weight:normal;font-stretch:normal;font-size:11.28888893px;font-family:'Cinzel Decorative Black';-inkscape-font-specification:'Cinzel Decorative Black, ';fill:#ffffff;fill-opacity:1"
         id="path2148"
         inkscape:connector-curvature="0" />
      <path
         d="m 106.48577,133.34679 q 0.15797,-0.005 0.31661,0.0134 l 0.003,0.11284 q -1.01197,0.15354 -1.50686,1.0036 -0.49488,0.85007 -0.455,2.22674 l 0.12192,4.20899 q 0.0206,1.49016 -0.89312,2.30718 -0.90275,0.80541 -2.73078,0.85836 -1.828036,0.053 -2.900997,-0.72911 -1.072962,-0.78206 -1.112186,-2.13615 -9.81e-4,-0.0339 -0.002,-0.0677 l -0.125846,-4.3444 q -0.0069,-0.23697 -0.191987,-0.38971 -0.173838,-0.15308 -0.42209,-0.14589 l -0.180546,0.005 -0.0033,-0.11284 3.870462,-0.11212 0.003,0.11284 -0.18054,0.005 q -0.349813,0.0101 -0.511231,0.28586 -0.06411,0.12609 -0.07147,0.26182 l 0.125192,4.32184 q 0.034,1.17355 0.640379,1.8336 0.61735,0.64844 1.59907,0.62 0.0113,-3.2e-4 0.0113,-3.2e-4 0.0113,-3.3e-4 0.0226,-6.6e-4 0.93659,-0.0271 1.51667,-0.66508 0.59104,-0.64956 0.55868,-1.7667 l -0.12519,-4.32183 q -0.0405,-1.39923 0.74283,-2.42706 0.37026,-0.47376 0.87184,-0.70287 0.51253,-0.24072 1.00904,-0.2551 z"
         style="font-style:normal;font-variant:normal;font-weight:normal;font-stretch:normal;font-size:11.28888893px;font-family:'Cinzel Decorative Black';-inkscape-font-specification:'Cinzel Decorative Black, ';fill:#ffffff;fill-opacity:1"
         id="path2150"
         inkscape:connector-curvature="0" />
      <path
         d="m 111.0649,143.87339 0.1467,0.004 -0.003,0.11285 -4.05118,-0.1116 0.003,-0.11284 0.1467,0.004 q 0.2934,0.008 0.50212,-0.18945 0.22031,-0.2085 0.23968,-0.50159 l 0.17936,-6.51122 -0.98269,0.007 q -0.94884,0.008 -1.03489,0.67167 -9.3e-4,0.0339 -0.002,0.0677 -0.009,0.31597 0.20042,0.51371 0.20913,0.19775 0.53638,0.20676 0.0677,0.002 0.13541,0.004 l -0.002,0.0677 q -0.25199,0.12858 -0.50025,0.12174 -0.23698,-0.007 -0.4812,-0.16007 -0.46618,-0.29517 -0.45095,-0.84812 0.0143,-0.51909 0.42987,-0.84644 0.41588,-0.33863 1.28573,-0.34855 0.12444,-0.008 0.79085,-0.0121 0.6777,-0.004 1.16325,-0.002 1.40116,-0.0292 2.11582,-0.14499 l 0.0195,0.11347 q -0.63474,0.0842 -0.81613,0.51959 -0.0849,0.21223 -0.1052,0.53917 l -0.16817,6.10498 q -0.008,0.2934 0.20042,0.51371 0.20881,0.20903 0.50221,0.21711 z"
         style="font-style:normal;font-variant:normal;font-weight:normal;font-stretch:normal;font-size:11.28888893px;font-family:'Cinzel Decorative Black';-inkscape-font-specification:'Cinzel Decorative Black, ';fill:#ffffff;fill-opacity:1"
         id="path2152"
         inkscape:connector-curvature="0" />
      <path
         d="m 116.34449,136.52063 q -0.4055,-0.0269 -0.64272,0.30802 -0.10059,0.15172 -0.12532,0.35372 l -0.40932,6.16144 q -0.0599,0.90113 -0.40287,1.63636 -0.33174,0.73599 -0.92712,1.18293 -0.60664,0.44619 -1.44019,0.39081 -0.82227,-0.0546 -1.83241,-0.68742 l 0.0293,-0.0999 q 0.17798,0.0458 0.3582,0.0577 0.18023,0.012 0.43178,-0.0279 0.23954,-0.0293 0.46403,-0.17282 0.22375,-0.13221 0.39791,-0.36955 0.17416,-0.23733 0.28148,-0.49042 0.10658,-0.24182 0.17184,-0.54296 0.12303,-0.48963 0.1612,-1.06409 l 0.40708,-6.12765 q 0.008,-0.29362 -0.19236,-0.51059 -0.18853,-0.22748 -0.4814,-0.24694 l -0.14643,-0.01 0.007,-0.11264 4.0438,0.26864 -0.007,0.11264 z"
         style="font-style:normal;font-variant:normal;font-weight:normal;font-stretch:normal;font-size:11.28888893px;font-family:'Cinzel Decorative Black';-inkscape-font-specification:'Cinzel Decorative Black, ';fill:#ffffff;fill-opacity:1"
         id="path2154"
         inkscape:connector-curvature="0" />
      <path
         d="m 127.05298,147.46083 q -0.9214,0.4058 -1.81864,0.30305 -0.89725,-0.10276 -1.66624,-0.5317 -0.75777,-0.42766 -1.43532,-1.35746 -0.66761,-0.91729 -1.02366,-2.17387 l -0.21805,-0.77491 -2.40014,-0.27486 -0.56807,0.99167 q -0.0728,0.13938 -0.0831,0.2291 -0.0103,0.0897 0.0105,0.20574 0.0333,0.10607 0.14639,0.20993 0.1256,0.0939 0.2714,0.11062 l 0.10094,0.0116 -0.0128,0.11215 -2.50108,-0.28642 0.0129,-0.11216 0.10094,0.0116 q 0.25796,0.0295 0.5214,-0.088 0.27594,-0.12748 0.47885,-0.41103 l 2.8634,-4.76256 q -0.22986,-0.96943 -0.41821,-1.30915 -0.17585,-0.34966 -0.30238,-0.53459 -0.23321,-0.34486 -0.62028,-0.5369 -0.15059,-0.0741 -0.36369,-0.0985 -0.2131,-0.0244 -0.49383,0.0457 l -0.01,-0.11472 q 0.95762,-0.42438 1.77635,-0.33062 1.21129,0.13872 2.0509,1.43931 0.42284,0.67338 0.7152,1.59315 l 1.32311,4.32162 q 0.36376,1.18929 0.55433,1.60881 0.19186,0.4083 0.34048,0.69803 0.15856,0.30222 0.31489,0.52465 0.15633,0.22243 0.34759,0.4375 0.33158,0.37885 0.87309,0.61131 0.22654,0.10548 0.50693,0.13759 0.2916,0.0334 0.61591,-0.0204 z m -8.25108,-5.34228 1.92908,0.22092 -0.5075,-1.81933 q -0.0666,-0.21216 -0.14759,-0.5964 z"
         style="font-style:normal;font-variant:normal;font-weight:normal;font-stretch:normal;font-size:11.28888893px;font-family:'Cinzel Decorative Black';-inkscape-font-specification:'Cinzel Decorative Black, ';fill:#ffffff;fill-opacity:1"
         id="path2156"
         inkscape:connector-curvature="0" />
    </g>
    <path
       style="fill:none;fill-opacity:1;stroke:none;stroke-width:0.26499999;stroke-miterlimit:4;stroke-dasharray:none;stroke-opacity:1"
       id="path1475"
       d="m 106.50591,122.95192 c -0.25714,-0.0482 -0.48806,-0.17318 -0.66578,-0.3666 -0.0473,-0.0515 -0.0867,-0.10962 -0.13009,-0.16443 -0.22534,-0.35229 -0.35909,-0.77203 -0.34562,-1.19367 0.003,-0.0949 0.0202,-0.1889 0.0304,-0.28334 0.10535,-0.50324 0.34465,-0.96364 0.74079,-1.29901 0.0841,-0.0712 0.1777,-0.13033 0.26655,-0.1955 0.58551,-0.34933 1.1415,-0.73899 1.83257,-0.79075 0.24897,-0.0186 0.53759,0.008 0.77825,0.0731 0.13211,0.0357 0.25683,0.0946 0.38524,0.14184 0.12207,0.0699 0.25083,0.12931 0.36623,0.20979 0.48777,0.3402 0.8156,0.84509 1.01867,1.39641 0.0514,0.13943 0.0871,0.28414 0.1306,0.42622 0.18453,0.83661 0.0716,1.54252 -0.28541,2.31724 -0.0789,0.17131 -0.17445,0.33449 -0.26168,0.50174 -0.4001,0.66785 -0.88678,1.28831 -1.50471,1.76863 -0.46662,0.3627 -1.16925,0.70926 -1.62236,0.96345 -0.40335,0.15608 -0.85506,0.26493 -1.25372,0.0305 -0.16839,-0.099 -0.19749,-0.16819 -0.30956,-0.31827 -0.0274,-0.0613 -0.0626,-0.11968 -0.0822,-0.18388 -0.0806,-0.26313 -0.01,-0.54954 0.1827,-0.7468 0.0544,-0.0557 0.12212,-0.0965 0.18317,-0.14472 0.35804,-0.19203 0.70449,-0.40744 1.07411,-0.57608 0.0975,-0.0445 0.20959,-0.0462 0.31604,-0.0582 0.4082,-0.0459 0.8249,0.002 1.21973,0.11145 0.15616,0.0435 0.30652,0.10559 0.45978,0.15838 1.04209,0.43615 1.87934,1.20968 2.7178,1.94461 0.53025,0.46287 1.06254,0.93831 1.70398,1.24369 0.39919,0.19005 0.45538,0.18157 0.87806,0.28586 0.14661,0.01 0.29297,0.0333 0.43981,0.0288 0.28404,-0.009 0.57679,-0.0792 0.83907,-0.186 0.13771,-0.0561 0.54153,-0.16006 0.39846,-0.20059 -0.1471,-0.0417 -0.30933,0.30679 -0.41469,0.196 -0.10018,-0.10535 0.22043,-0.18959 0.33064,-0.28439 0.0883,-0.0954 0.17655,-0.19089 0.26483,-0.28633 0,0 0.86477,-0.363 0.86477,-0.363 v 0 c -0.0892,0.0996 -0.17831,0.19918 -0.26746,0.29878 -0.62127,0.55625 -0.36405,0.36115 -1.50451,1.01841 -0.24813,0.143 -0.55173,0.25572 -0.83376,0.30753 -0.39284,0.0722 -0.48541,0.035 -0.88102,-0.003 -0.42439,-0.11492 -0.48755,-0.10989 -0.88683,-0.30852 -0.63932,-0.31805 -1.16962,-0.80151 -1.70233,-1.2675 -0.83205,-0.72873 -1.6672,-1.4936 -2.71098,-1.9054 -0.15257,-0.0485 -0.30244,-0.10655 -0.45772,-0.14554 -0.39412,-0.099 -0.81161,-0.13417 -1.21415,-0.0685 -0.10582,0.0173 -0.38394,0.15667 -0.31233,0.0769 0.15265,-0.1701 0.38432,-0.24748 0.57649,-0.37122 -0.0632,0.0396 -0.13208,0.0713 -0.18966,0.11877 -0.19133,0.15758 -0.29189,0.40773 -0.22731,0.65093 0.0153,0.0577 0.046,0.11026 0.0689,0.16539 0.0994,0.13269 0.12373,0.19384 0.27604,0.27723 0.37823,0.20707 0.80655,0.0742 1.17651,-0.0754 -0.12622,0.0808 -0.49873,0.3322 -0.37865,0.24251 0.13845,-0.10342 0.2952,-0.18065 0.43388,-0.28376 0.62478,-0.46455 1.1161,-1.07516 1.51842,-1.73662 0.0865,-0.16355 0.18099,-0.32313 0.25955,-0.49064 0.35644,-0.75998 0.47451,-1.42999 0.30201,-2.25551 -0.0418,-0.13902 -0.0757,-0.28067 -0.12542,-0.41705 -0.1943,-0.53284 -0.51331,-1.02205 -0.9907,-1.34214 -0.11316,-0.0759 -0.2393,-0.13032 -0.35895,-0.19548 -0.12557,-0.0423 -0.24778,-0.0963 -0.37669,-0.12695 -0.37125,-0.0883 -0.75721,-0.0736 -1.12365,0.0275 -0.11543,0.0318 -0.41471,0.21274 -0.33845,0.12041 0.12595,-0.1525 0.33418,-0.21169 0.50127,-0.31754 -0.0901,0.0609 -0.18447,0.11586 -0.27021,0.18271 -0.39932,0.31137 -0.646,0.74711 -0.76208,1.23541 -0.0117,0.0896 -0.0302,0.17867 -0.035,0.26895 -0.0211,0.4016 0.10418,0.80233 0.3243,1.13471 0.0414,0.05 0.079,0.10341 0.12416,0.14998 0.1742,0.17945 0.40257,0.28087 0.64946,0.30586 0,0 -0.80955,0.57293 -0.80955,0.57293 z"
       inkscape:connector-curvature="0" />
    <path
       style="color:#000000;font-style:normal;font-variant:normal;font-weight:normal;font-stretch:normal;font-size:medium;line-height:normal;font-family:sans-serif;font-variant-ligatures:normal;font-variant-position:normal;font-variant-caps:normal;font-variant-numeric:normal;font-variant-alternates:normal;font-feature-settings:normal;text-indent:0;text-align:start;text-decoration:none;text-decoration-line:none;text-decoration-style:solid;text-decoration-color:#000000;letter-spacing:normal;word-spacing:normal;text-transform:none;writing-mode:lr-tb;direction:ltr;text-orientation:mixed;dominant-baseline:auto;baseline-shift:baseline;text-anchor:start;white-space:normal;shape-padding:0;clip-rule:nonzero;display:inline;overflow:visible;visibility:visible;opacity:1;isolation:auto;mix-blend-mode:normal;color-interpolation:sRGB;color-interpolation-filters:linearRGB;solid-color:#000000;solid-opacity:1;vector-effect:none;fill:#ffffff;fill-opacity:1;fill-rule:nonzero;stroke:none;stroke-width:0.1;stroke-linecap:butt;stroke-linejoin:miter;stroke-miterlimit:4;stroke-dasharray:none;stroke-dashoffset:0;stroke-opacity:1;color-rendering:auto;image-rendering:auto;shape-rendering:auto;text-rendering:auto;enable-background:accumulate"
       d="m 104.99948,121.98324 c 2e-5,2.5e-4 -1e-5,0.002 0,0.002 -0.70663,1.4467 -2.26627,1.90094 -1.95802,2.95486 -1.14758,-0.43529 -2.20627,-0.24187 -2.88044,0.75809 -1.571061,0.017 -3.029585,3.41943 -5.039487,2.26963 0.566267,-0.49729 -0.846886,-0.36671 -0.521414,-2.51664 -0.378053,0.70731 -0.858036,2.95663 1.040762,3.21376 2.066425,0.37376 2.910174,-2.07348 4.343921,-2.41795 -0.296256,1.18306 0.348158,1.64128 1.002008,1.50792 1.01582,-0.44521 0.35037,-1.59751 -0.30696,-1.77818 0.80821,-1.25623 2.24128,-0.4988 3.28765,-0.0486 -0.95498,-1.08495 -0.46762,-1.63778 1.0325,-2.8422 1.50011,1.20442 1.98799,1.75725 1.03301,2.8422 1.04637,-0.45022 2.47893,-1.20765 3.28714,0.0486 -0.65733,0.18067 -1.32278,1.33297 -0.30696,1.77818 0.65385,0.13336 1.29827,-0.32486 1.00201,-1.50792 1.43375,0.34447 2.2775,2.79171 4.34392,2.41795 1.8988,-0.25713 1.41881,-2.50645 1.04076,-3.21376 0.32547,2.14993 -1.08768,2.01935 -0.52141,2.51664 -2.0099,1.1498 -3.46791,-2.25263 -5.03897,-2.26963 -0.67417,-0.99996 -1.73338,-1.19338 -2.88096,-0.75809 0.30825,-1.05392 -1.2514,-1.50815 -1.95802,-2.95486 1e-5,-2.6e-4 -2e-5,-0.002 0,-0.002 -1.8e-4,3.6e-4 -3.5e-4,6.8e-4 -5.2e-4,0.001 -1.7e-4,-3.6e-4 -3.5e-4,-6.9e-4 -5.2e-4,-0.001 z m -4.56923,4.38681 c 0.5549,0.20882 0.76528,0.77456 0.40204,0.94723 -0.45303,0.0815 -0.51316,-0.57575 -0.40204,-0.94723 z m 9.1395,0 c 0.11112,0.37148 0.051,1.02873 -0.40205,0.94723 -0.36323,-0.17267 -0.15285,-0.73841 0.40205,-0.94723 z"
       id="path1910"
       inkscape:connector-curvature="0" />
    <circle
       transform="rotate(90)"
       r="120.98806"
       cy="-105"
       cx="282.49838"
       id="circle1922"
       style="fill:#ff0000;fill-opacity:0;fill-rule:evenodd;stroke-width:0.34924388" />
    <g
       aria-label="A B C D E F G H I J K L M"
       transform="translate(-0.84569283,18.33469)"
       style="font-style:normal;font-weight:normal;font-size:5.64444447px;line-height:1.25;font-family:sans-serif;text-align:center;letter-spacing:0px;word-spacing:0px;text-anchor:middle;fill:#ffffff;fill-opacity:1;stroke:none;stroke-width:0.26458332"
       id="text1926">
      <path
         d="m 47.939961,148.7439 q 0.485456,-0.49769 1.030377,-0.73074 0.454101,-0.19422 1.079165,-0.0641 0.341064,0.069 0.893304,0.45592 0.373338,0.27006 1.11722,1.07995 l 2.45196,2.6685 q 0.832019,0.89038 1.486675,1.34093 0.667622,0.45575 1.12664,0.62471 0.462902,0.17804 0.87148,0.1537 0.408578,-0.0243 0.635629,-0.12145 0.236132,-0.10099 0.402235,-0.215 l 0.04792,0.0869 q -0.373789,0.33175 -0.791562,0.51043 -0.417772,0.17867 -0.928767,0.13938 -0.507111,-0.0302 -1.033531,-0.25628 -1.118984,-0.45609 -2.355303,-1.83964 l -0.797004,-0.88386 -2.488473,1.06429 0.06474,1.88461 q 0.0012,0.12841 0.04781,0.23739 0.04661,0.10898 0.191811,0.19729 0.150398,0.0753 0.350202,-0.0101 l 0.07266,-0.0311 0.03884,0.0908 -1.825485,0.78074 -0.03884,-0.0908 0.08174,-0.035 q 0.217969,-0.0932 0.372475,-0.30971 0.150623,-0.22557 0.17421,-0.54721 l -0.05491,-6.35801 q -0.789517,-0.48957 -1.516078,-0.17883 -0.326953,0.13983 -0.641051,0.43532 z m 2.731345,3.69854 2.29775,-0.98272 -1.622511,-1.80925 Q 50.877413,149.13131 50.557253,148.86 Z"
         style="font-style:normal;font-variant:normal;font-weight:normal;font-stretch:normal;font-size:9.87777805px;font-family:'Cinzel Decorative';-inkscape-font-specification:'Cinzel Decorative';fill:#ffffff;fill-opacity:1"
         id="path2120"
         inkscape:connector-curvature="0" />
      <path
         d="m 60.767225,146.87116 q -0.105902,0.23584 -0.291024,0.39473 0.959426,-0.18892 1.61752,0.16699 0.654834,0.34659 0.915621,1.09254 0.316204,0.90447 -0.215508,1.7182 -0.531711,0.81373 -1.715907,1.22772 -1.184196,0.414 -2.05766,0.0706 -0.876725,-0.35273 -1.248346,-1.41571 -0.01956,-0.0559 -0.03912,-0.11189 l 0.09605,-0.0545 q 0.672202,1.32414 1.78537,1.39539 l -1.897223,-5.42679 q -0.106664,-0.24524 -0.339244,-0.34181 -0.226516,-0.10917 -0.46895,-0.0244 l -0.111892,0.0391 -0.0326,-0.0932 1.566495,-0.54765 q 0.876491,-0.30642 1.538829,-0.088 0.671662,0.21513 0.89985,0.86784 0.224929,0.64338 -0.0023,1.13091 z m -2.574534,-1.52759 2.086292,5.9676 q 0.324004,-0.0609 0.724952,-0.20113 0.89514,-0.31294 1.223081,-0.96125 0.334005,-0.6609 0.0667,-1.4255 -0.143432,-0.41027 -0.412781,-0.67189 -0.260024,-0.26487 -0.55507,-0.36053 -0.781661,-0.2604 -1.900586,0.13078 -0.0093,0.003 -0.0093,0.003 l -0.03866,-0.0807 q 0.0093,-0.003 0.0093,-0.003 0.475544,-0.16625 0.703647,-0.59131 0.234167,-0.43764 0.006,-1.09035 -0.430298,-1.23082 -1.782333,-0.75814 v 0 z"
         style="font-style:normal;font-variant:normal;font-weight:normal;font-stretch:normal;font-size:9.87777805px;font-family:'Cinzel Decorative';-inkscape-font-specification:'Cinzel Decorative';fill:#ffffff;fill-opacity:1"
         id="path2122"
         inkscape:connector-curvature="0" />
      <path
         d="m 73.074759,144.11817 q 0.444,1.63994 -0.192314,2.80485 -0.629361,1.1528 -2.240693,1.58906 -1.086934,0.29428 -2.088016,0.0741 -0.991548,-0.22275 -1.692064,-0.88246 -0.690981,-0.6623 -0.954284,-1.63482 -0.265883,-0.98205 -0.0034,-1.90248 0.26247,-0.92044 0.980181,-1.59572 0.71513,-0.68482 1.744857,-0.96361 0.648347,-0.17554 1.364809,-0.17508 0.723416,-0.0117 1.251561,0.16259 l 0.554667,1.29273 -0.08581,0.0232 q -0.417062,-0.74669 -1.26301,-0.99863 -0.84853,-0.26147 -1.735239,-0.0214 -1.26809,0.34333 -1.871429,1.47885 -0.596386,1.12341 -0.227246,2.48684 0.36914,1.36344 1.487176,2.05338 1.124989,0.67782 2.536096,0.29577 1.411108,-0.38204 2.050003,-1.53743 0.64843,-1.15796 0.217337,-2.75022 l 0.09534,-0.0258 q 0.04051,0.11184 0.07149,0.22625 z"
         style="font-style:normal;font-variant:normal;font-weight:normal;font-stretch:normal;font-size:9.87777805px;font-family:'Cinzel Decorative';-inkscape-font-specification:'Cinzel Decorative';fill:#ffffff;fill-opacity:1"
         id="path2124"
         inkscape:connector-curvature="0" />
      <path
         d="m 74.64444,141.652 q 0.12849,-0.87778 0.731249,-1.3111 0.602759,-0.43331 2.282942,-0.74503 0.349634,-0.0649 1.772998,-0.29881 1.034882,-0.16186 1.899037,0.10981 0.864156,0.27167 1.443546,0.95783 0.5873,0.67466 0.774694,1.68471 0.282894,1.52479 -0.513529,2.64704 -0.788513,1.11075 -2.342439,1.39904 l -3.292383,0.61084 -0.0083,-0.0989 0.116544,-0.0216 q 0.242801,-0.045 0.388788,-0.23287 0.144185,-0.19754 0.130076,-0.43603 l -1.086527,-5.85636 q -1.2086,0.25437 -1.648759,0.6977 -0.22799,0.23318 -0.331524,0.43322 -0.105337,0.19033 -0.202367,0.47958 z m 2.927972,-1.70861 1.153197,6.21571 1.913272,-0.35497 q 1.23343,-0.22883 1.832405,-1.22404 0.608686,-0.99701 0.349217,-2.39554 -0.171178,-0.92265 -0.650546,-1.55705 -0.471458,-0.64591 -1.174815,-0.91727 -0.693646,-0.27316 -1.509457,-0.1218 z"
         style="font-style:normal;font-variant:normal;font-weight:normal;font-stretch:normal;font-size:9.87777805px;font-family:'Cinzel Decorative';-inkscape-font-specification:'Cinzel Decorative';fill:#ffffff;fill-opacity:1"
         id="path2126"
         inkscape:connector-curvature="0" />
      <path
         d="m 87.908628,144.84354 q 0.255247,-0.0284 0.412291,-0.22478 0.165768,-0.20728 0.14718,-0.46362 l -0.61181,-5.49762 q -0.02622,-0.23561 -0.230227,-0.37193 -0.205099,-0.14613 -0.460345,-0.11772 l -0.117806,0.0131 -0.02074,-0.0971 1.992887,-0.22178 q 0.304332,-0.0339 0.651195,-0.13211 0.356681,-0.0993 0.497383,-0.17461 l 0.137657,1.23696 -0.09817,0.0109 -0.01967,-0.17671 q -0.02622,-0.23562 -0.211685,-0.38393 -0.175647,-0.14942 -0.402535,-0.13411 l -1.119158,0.12455 0.337588,3.03351 1.865263,-0.20758 q 0.195251,-0.0317 0.317396,-0.1844 0.122145,-0.15274 0.0992,-0.3589 l -0.01529,-0.13744 0.09817,-0.0109 0.172618,1.55112 -0.09817,0.0109 -0.01639,-0.14725 q -0.02185,-0.19635 -0.174586,-0.31849 -0.142918,-0.12324 -0.340354,-0.11121 l -1.875081,0.20867 0.326663,2.93534 2.091058,-0.23271 q 0.726471,-0.0808 1.073287,-0.44742 0.346817,-0.36657 0.53105,-1.0331 l 0.09817,-0.0109 -0.392409,1.65375 -4.761329,0.52987 -0.01093,-0.0982 z"
         style="font-style:normal;font-variant:normal;font-weight:normal;font-stretch:normal;font-size:9.87777805px;font-family:'Cinzel Decorative';-inkscape-font-specification:'Cinzel Decorative';fill:#ffffff;fill-opacity:1"
         id="path2128"
         inkscape:connector-curvature="0" />
      <path
         d="m 101.10908,141.12182 q -0.01,-0.19733 -0.15438,-0.32876 -0.13495,-0.13191 -0.33276,-0.13221 l -3.15718,0.15301 0.122887,2.53561 q 0.01243,0.25652 0.208975,0.43489 0.196065,0.16851 0.452586,0.15608 l 0.128261,-0.006 0.0048,0.0987 -2.160697,0.10472 -0.0048,-0.0987 0.128261,-0.006 q 0.256521,-0.0124 0.425506,-0.19863 0.178373,-0.19654 0.175807,-0.45354 l -0.26777,-5.52507 q -0.01148,-0.23679 -0.21645,-0.38509 -0.195587,-0.15864 -0.442242,-0.14668 l -0.118394,0.006 -0.01465,-0.0982 2.890796,-0.1401 q 0.424247,-0.0206 0.746484,-0.1054 0.322237,-0.0848 0.418987,-0.12909 l 0.05403,1.11488 -0.09866,0.005 -0.0072,-0.14799 q -0.0096,-0.19733 -0.154384,-0.32876 -0.145299,-0.1413 -0.352489,-0.13126 l -2.081768,0.1009 0.147752,3.04865 3.147312,-0.15253 q 0.19685,-0.0194 0.32828,-0.16425 0.13143,-0.14482 0.12139,-0.35201 l -0.007,-0.13813 0.0987,-0.005 0.0756,1.55886 -0.0987,0.005 z"
         style="font-style:normal;font-variant:normal;font-weight:normal;font-stretch:normal;font-size:9.87777805px;font-family:'Cinzel Decorative';-inkscape-font-specification:'Cinzel Decorative';fill:#ffffff;fill-opacity:1"
         id="path2130"
         inkscape:connector-curvature="0" />
      <path
         d="m 113.33604,145.74091 q -1.25417,-0.0277 -2.03639,-0.84531 -0.57942,-0.60562 -0.74719,-1.50842 -0.95388,0.69028 -2.31668,0.66016 -1.07641,-0.0238 -1.95494,-0.50759 -0.86843,-0.49344 -1.35395,-1.32423 -0.47565,-0.83057 -0.45295,-1.85761 0.0227,-1.02704 0.53459,-1.83578 0.52199,-0.8184 1.41094,-1.25323 0.88894,-0.43484 1.97523,-0.41083 1.36281,0.0301 2.38487,0.72457 l 0.16673,1.3968 -0.0889,-0.002 q -0.27094,-1.15209 -1.30856,-1.58999 -0.50893,-0.21874 -1.1607,-0.23315 -1.33318,-0.0295 -2.24248,0.87917 -0.89943,0.90886 -0.93108,2.34078 -0.0314,1.42206 0.8366,2.37986 0.86805,0.95781 2.19113,0.99694 0.6419,0.0142 1.22957,-0.20007 0.58766,-0.21425 1.01138,-0.60997 l 0.0386,-1.74794 q 0.005,-0.21726 -0.12118,-0.32873 -0.12576,-0.12134 -0.36277,-0.12658 l -0.158,-0.003 0.002,-0.0987 1.93557,0.0428 -0.002,0.0988 -0.14813,-0.003 q -0.24688,-0.005 -0.37788,0.11021 -0.13079,0.10579 -0.12571,0.32327 l -0.0336,1.5208 q 0.0248,1.56162 0.96783,2.25432 0.66104,0.48886 1.72758,0.51244 0.44439,0.01 0.96975,-0.0675 l 0.008,0.099 q -0.79548,0.22942 -1.46701,0.21457 z"
         style="font-style:normal;font-variant:normal;font-weight:normal;font-stretch:normal;font-size:9.87777805px;font-family:'Cinzel Decorative';-inkscape-font-specification:'Cinzel Decorative';fill:#ffffff;fill-opacity:1"
         id="path2132"
         inkscape:connector-curvature="0" />
      <path
         d="m 121.79806,144.78734 0.11792,0.012 -0.01,0.0983 -2.14221,-0.21876 0.01,-0.0983 0.12775,0.013 q 0.24567,0.0251 0.43961,-0.1239 0.20477,-0.15782 0.25051,-0.4113 l 0.26091,-2.55494 -3.80293,-0.38835 -0.26191,2.56476 q -0.14048,1.37574 -0.85687,1.77918 -0.3267,0.18508 -0.81925,0.244 l -0.0401,-0.0935 q 0.46629,-0.19068 0.72282,-0.66094 0.26636,-0.46926 0.35467,-1.334 l 0.55995,-5.48329 q 0.0261,-0.25549 -0.14256,-0.45144 -0.16864,-0.19594 -0.42413,-0.22203 l -0.11792,-0.0121 0.01,-0.0983 2.14222,0.21876 -0.01,0.0983 -0.12775,-0.013 q -0.25549,-0.0261 -0.46026,0.13172 -0.19494,0.15882 -0.23086,0.41331 l -0.26793,2.62372 3.80292,0.38835 0.24987,-2.44684 q 0.13827,-1.25681 0.73874,-1.69195 0.36421,-0.26068 0.94721,-0.33022 l 0.0401,0.0934 q -0.46629,0.19069 -0.73265,0.65994 -0.26636,0.46926 -0.35467,1.33401 l -0.53887,5.27692 q -0.0261,0.25549 0.13172,0.46026 0.16865,0.19595 0.43397,0.22304 z"
         style="font-style:normal;font-variant:normal;font-weight:normal;font-stretch:normal;font-size:9.87777805px;font-family:'Cinzel Decorative';-inkscape-font-specification:'Cinzel Decorative';fill:#ffffff;fill-opacity:1"
         id="path2134"
         inkscape:connector-curvature="0" />
      <path
         d="m 128.20243,145.78929 0.12666,0.0211 -0.0163,0.0974 -2.13375,-0.35598 0.0163,-0.0974 0.12666,0.0211 q 0.25332,0.0423 0.4677,-0.10223 0.216,-0.15424 0.25826,-0.40756 l 0.9753,-5.84587 -1.05227,-0.11546 q -0.99381,-0.10572 -1.10272,0.54707 -0.0439,0.26306 0.0909,0.47582 0.1445,0.21437 0.51148,0.29563 l -0.01,0.0585 q -0.14128,0.006 -0.27768,-0.0163 -0.4287,-0.0715 -0.58616,-0.44829 -0.0941,-0.21599 -0.0551,-0.44983 0.13817,-0.82816 1.41779,-0.75488 0.01,0.002 0.97432,0.10247 0.97595,0.0927 1.54919,0.0782 l 0.003,0.10068 q -0.43034,-0.002 -0.64147,0.18339 -0.21114,0.18509 -0.27453,0.56508 l -0.88914,5.32948 q -0.0325,0.25495 0.11197,0.46932 0.15586,0.20626 0.40918,0.24853 z"
         style="font-style:normal;font-variant:normal;font-weight:normal;font-stretch:normal;font-size:9.87777805px;font-family:'Cinzel Decorative';-inkscape-font-specification:'Cinzel Decorative';fill:#ffffff;fill-opacity:1"
         id="path2136"
         inkscape:connector-curvature="0" />
      <path
         d="m 130.25608,147.60982 q 0.2421,0.1429 0.50286,0.19888 0.2511,0.0539 0.55398,0.008 0.30288,-0.0461 0.58443,-0.22814 0.27947,-0.17237 0.52178,-0.59518 0.25197,-0.42075 0.38466,-1.03884 l 1.12787,-5.25381 q 0.0442,-0.25318 -0.10193,-0.46641 -0.13445,-0.22082 -0.38555,-0.27472 l -0.12555,-0.0269 0.0207,-0.0966 2.11505,0.45405 -0.0207,0.0966 -0.12555,-0.027 q -0.2511,-0.0539 -0.47192,0.0805 -0.21115,0.13652 -0.27679,0.39521 l -1.13409,5.28279 q -0.14098,0.65672 -0.44953,1.10573 -0.30855,0.449 -0.6715,0.63376 -0.67691,0.32952 -1.38193,0.17817 -0.41528,-0.0892 -0.72771,-0.32797 z"
         style="font-style:normal;font-variant:normal;font-weight:normal;font-stretch:normal;font-size:9.87777805px;font-family:'Cinzel Decorative';-inkscape-font-specification:'Cinzel Decorative';fill:#ffffff;fill-opacity:1"
         id="path2138"
         inkscape:connector-curvature="0" />
      <path
         d="m 139.55156,148.31712 0.12382,0.034 -0.0262,0.0953 -2.08593,-0.57313 0.0262,-0.0952 0.12382,0.034 q 0.24765,0.068 0.4662,-0.0563 0.2307,-0.13124 0.30826,-0.37627 l 1.45247,-5.28626 q 0.0585,-0.25026 -0.0754,-0.47143 -0.12434,-0.21855 -0.37198,-0.2866 l -0.12382,-0.034 0.0262,-0.0952 2.08593,0.57313 -0.0262,0.0952 -0.12382,-0.034 q -0.24764,-0.068 -0.47572,0.0537 -0.21855,0.12434 -0.29612,0.36937 l -1.45246,5.28626 q -0.068,0.24764 0.0632,0.47834 0.13386,0.22117 0.38151,0.28921 z m 6.18195,3.33758 -0.0262,0.0953 q -0.3855,-0.0137 -0.74744,-0.11317 -1.56207,-0.4292 -2.59969,-2.39429 l -2.22888,-4.22849 3.02249,-2.20172 q 0.10237,-0.0743 0.12331,-0.15051 0.0209,-0.0762 0.008,-0.14119 -0.0369,-0.16381 -0.23696,-0.21877 l -0.0952,-0.0262 0.0236,-0.0857 2.00973,0.55219 -0.0236,0.0857 -0.0381,-0.0105 q -0.62863,-0.17273 -1.15167,0.16502 l -2.92327,1.9524 2.28844,4.34729 q 0.44283,0.84899 1.10609,1.4922 0.67017,0.65536 1.48931,0.88042 z"
         style="font-style:normal;font-variant:normal;font-weight:normal;font-stretch:normal;font-size:9.87777805px;font-family:'Cinzel Decorative';-inkscape-font-specification:'Cinzel Decorative';fill:#ffffff;fill-opacity:1"
         id="path2140"
         inkscape:connector-curvature="0" />
      <path
         d="m 148.00126,151.2028 q 1.75749,1.36829 2.66648,1.94795 0.91516,0.59219 1.62605,0.83343 0.72025,0.24441 1.69191,0.20905 l 0.0214,0.0907 q -1.4078,0.39848 -2.56768,0.005 -1.18795,-0.40312 -2.45252,-1.65629 -0.97243,-0.97671 -1.21179,-1.19354 -0.8485,-0.78862 -1.49074,-1.01699 l 0.0317,-0.0935 0.1216,0.0413 q 0.2432,0.0825 0.4687,-0.0287 0.23486,-0.10806 0.32992,-0.35745 l 1.75849,-5.18205 q 0.0732,-0.24637 -0.0474,-0.47505 -0.10806,-0.23486 -0.35126,-0.31739 l -0.1216,-0.0413 0.0317,-0.0935 2.0485,0.69514 -0.0317,0.0935 -0.1216,-0.0413 q -0.2432,-0.0825 -0.48123,0.0349 -0.23486,0.10806 -0.31739,0.35126 l -1.83149,5.39719 q -0.0571,0.16837 -0.0702,0.26826 -0.01,0.0905 0.0549,0.2377 0.0648,0.14716 0.24519,0.29182 z"
         style="font-style:normal;font-variant:normal;font-weight:normal;font-stretch:normal;font-size:9.87777805px;font-family:'Cinzel Decorative';-inkscape-font-specification:'Cinzel Decorative';fill:#ffffff;fill-opacity:1"
         id="path2142"
         inkscape:connector-curvature="0" />
      <path
         d="m 161.21994,157.95941 q 0.0547,0.0229 0.10936,0.0457 l -0.0381,0.0911 q -0.27041,-0.0702 -0.58939,-0.20355 -0.30986,-0.12953 -0.71751,-0.46052 -0.39854,-0.32718 -0.616,-0.85703 -0.44554,-1.08555 -0.0991,-2.37534 l 1.13934,-4.28794 -3.68614,3.491 q -0.48756,0.44926 -0.69844,0.80006 l -0.0911,-0.0381 -0.21563,-6.11763 -2.29436,4.36183 q -0.083,0.14732 -0.0232,0.31151 0.069,0.168 0.20566,0.22514 0,0 0,0 l 0.14581,0.061 -0.0343,0.082 -1.76804,-0.73906 0.0381,-0.0911 0.14581,0.061 q 0.24607,0.10286 0.4893,0.0332 0.25615,-0.0749 0.40457,-0.30195 l 2.65419,-4.73602 q -0.14294,-1.91189 -1.26391,-2.38047 -0.10025,-0.0419 -0.21342,-0.0785 l 0.0381,-0.0911 q 0.27274,0.0391 0.42767,0.10382 0.15493,0.0648 0.32958,0.15918 0.17847,0.0853 0.39406,0.26108 0.21559,0.17576 0.37336,0.41301 0.16158,0.22814 0.26086,0.45164 0.10309,0.21439 0.17272,0.45761 0.10892,0.43095 0.12902,0.79265 l 0.20778,5.67541 4.74873,-4.47072 0.082,0.0343 -1.4077,5.74954 q -0.34196,1.3559 0.0126,2.27494 0.36366,0.92285 1.24768,1.29238 z"
         style="font-style:normal;font-variant:normal;font-weight:normal;font-stretch:normal;font-size:9.87777805px;font-family:'Cinzel Decorative';-inkscape-font-specification:'Cinzel Decorative';fill:#ffffff;fill-opacity:1"
         id="path2144"
         inkscape:connector-curvature="0" />
    </g>
    <g
       aria-label="N O P Q R S T U V W X Y Z"
       transform="translate(-0.54511133,31.965436)"
       style="font-style:normal;font-weight:normal;font-size:5.64444447px;line-height:1.25;font-family:sans-serif;text-align:center;letter-spacing:0px;word-spacing:0px;text-anchor:middle;fill:#000000;fill-opacity:1;stroke:none;stroke-width:0.26458332"
       id="text1930">
      <path
         d="m 55.52528,154.87515 q -0.612461,0.55707 -1.252343,0.68027 -0.675081,0.11778 -1.27222,-0.0185 -0.579225,-0.14465 -1.238829,-0.41533 l -7.152312,-3.03638 2.082128,4.47855 q 0.154706,0.30933 0.494212,0.33668 0.158713,0.0134 0.302026,-0.0533 l 0.170185,-0.0791 0.04164,0.0896 -1.845161,0.85784 -0.04164,-0.0896 0.170185,-0.0791 q 0.223927,-0.10411 0.314363,-0.33133 0.08627,-0.23619 -0.022,-0.46907 l -2.286177,-4.91745 q -0.07393,-0.0419 -0.287412,-0.14959 -0.217642,-0.11668 -0.357184,-0.18252 -0.139542,-0.0658 -0.370933,-0.16524 -0.235556,-0.10835 -0.419883,-0.15337 -0.175371,-0.0492 -0.412184,-0.11338 -0.36449,-0.0811 -0.710674,-0.0291 -0.346183,0.052 -0.552197,0.14779 -0.21497,0.0999 -0.423497,0.28404 l -0.07747,-0.0729 q 0.346655,-0.37902 0.749724,-0.56642 0.394112,-0.18322 0.726546,-0.21795 0.328269,-0.0437 0.772117,0.0441 0.443847,0.0878 0.745638,0.198 0.310748,0.10607 0.760409,0.30006 l 6.846358,2.91718 -2.136264,-4.59498 q -0.117228,-0.22872 -0.349248,-0.30604 -0.236184,-0.0863 -0.460111,0.0178 l -0.170185,0.0791 -0.04164,-0.0896 1.845161,-0.85784 0.04164,0.0896 -0.161228,0.075 q -0.223927,0.10411 -0.310198,0.34029 -0.09044,0.22723 0.0047,0.45532 l 2.352805,5.06075 q 0.135378,0.0569 0.388219,0.17899 0.261798,0.11793 0.361976,0.1694 0.109135,0.0473 0.314284,0.1371 0.205149,0.0898 0.332198,0.12878 0.14017,0.0438 0.332826,0.1067 0.205778,0.0677 0.355534,0.0853 0.162877,0.0223 0.360955,0.05 0.27327,0.0255 0.571132,-0.0368 0.30682,-0.0664 0.477004,-0.14551 0.179142,-0.0833 0.359541,-0.21073 z"
         style="font-style:normal;font-variant:normal;font-weight:normal;font-stretch:normal;font-size:9.87777805px;font-family:'Cinzel Decorative';-inkscape-font-specification:'Cinzel Decorative';fill:#ffffff;fill-opacity:1"
         id="path2093"
         inkscape:connector-curvature="0" />
      <path
         d="m 56.250042,148.16623 q -0.08114,-0.10708 -0.111624,-0.19059 -0.03387,-0.0928 -0.06523,-0.20753 -0.03136,-0.11473 -0.07465,-0.31975 -0.03401,-0.20841 -0.0089,-0.42786 0.02167,-0.22872 0.07795,-0.44905 0.05628,-0.22033 0.187672,-0.43653 0.140672,-0.21959 0.332007,-0.4156 0.403733,-0.42076 1.108939,-0.67815 1.419692,-0.51817 2.655928,0.10316 1.242127,0.60867 1.777234,2.07476 0.535106,1.46608 -0.167095,2.82647 -0.705588,1.35111 -2.329419,1.94379 -1.62383,0.59268 -3.05242,0.0205 -1.41931,-0.57554 -1.981511,-2.11586 -0.362382,-0.99286 -0.17953,-1.93235 0.182851,-0.9395 0.886624,-1.69058 l 0.08615,0.0632 q -0.457507,0.61914 -0.452272,1.46895 0.01451,0.84643 0.322708,1.69083 0.57236,1.56815 1.747772,2.13808 1.175412,0.56993 2.511593,0.0822 1.33618,-0.4877 1.858831,-1.6774 0.528543,-1.20237 2.11e-4,-2.6499 -0.457211,-1.25266 -1.449548,-1.86838 -0.983058,-0.61911 -2.20789,-0.17206 -0.547463,0.19982 -0.921735,0.55725 -0.681966,0.63797 -0.653906,1.52151 0.01044,0.25907 0.0714,0.4261 0.06096,0.16702 0.116774,0.26232 z"
         style="font-style:normal;font-variant:normal;font-weight:normal;font-stretch:normal;font-size:9.87777805px;font-family:'Cinzel Decorative';-inkscape-font-specification:'Cinzel Decorative';fill:#ffffff;fill-opacity:1"
         id="path2095"
         inkscape:connector-curvature="0" />
      <path
         d="m 67.701059,141.83943 q 0.827544,-0.23169 1.491092,0.0134 0.891072,0.32494 1.207986,1.45687 0.229031,0.81803 -0.06509,1.5261 -0.321519,0.75676 -1.206135,1.00443 -0.466089,0.1305 -0.907821,0.0182 -0.444395,-0.12177 -0.662779,-0.64531 l 0.07762,-0.0525 q 0.219147,0.37972 0.644901,0.4349 0.288781,0.0422 0.488534,-0.0137 0.779984,-0.21838 0.961486,-0.92568 0.131657,-0.51897 -0.04145,-1.13725 -0.276966,-0.98925 -0.951167,-1.27234 -0.514401,-0.22525 -1.161217,-0.0442 -0.152192,0.0426 -0.26101,0.0936 -0.101969,0.0388 -0.90859,0.41851 l 1.579244,5.64062 q 0.08142,0.25416 0.310081,0.37477 0.228665,0.12062 0.466465,0.054 l 0.123656,-0.0346 0.02663,0.0951 -2.083129,0.58323 -0.02663,-0.0951 0.123656,-0.0346 q 0.2378,-0.0666 0.370591,-0.2884 0.132792,-0.22181 0.0704,-0.4813 l -1.440761,-5.14599 q -0.06924,-0.24731 -0.249205,-0.34053 -0.182628,-0.10274 -0.410916,-0.0388 -0.04756,0.0133 -0.09246,0.0361 l -0.111481,0.0415 -0.04566,-0.0898 q 0.481309,-0.18605 1.271569,-0.55091 0.797109,-0.37703 0.991534,-0.45198 0.191763,-0.0845 0.420051,-0.14838 z"
         style="font-style:normal;font-variant:normal;font-weight:normal;font-stretch:normal;font-size:9.87777805px;font-family:'Cinzel Decorative';-inkscape-font-specification:'Cinzel Decorative';fill:#ffffff;fill-opacity:1"
         id="path2097"
         inkscape:connector-curvature="0" />
      <path
         d="m 88.865166,146.20983 q -0.356706,0.28249 -0.862538,0.52417 -0.496144,0.23975 -0.905004,0.36142 -0.399173,0.11973 -0.718869,0.18336 -1.046277,0.20825 -2.212337,0.0677 -0.453255,-0.0508 -1.541766,-0.25714 -2.719348,-0.5062 -3.746063,-0.50328 l -0.01928,-0.0969 q 0.0097,-0.002 0.02906,-0.006 1.685669,-0.33551 2.357128,-1.6173 0.494871,-0.95458 0.219139,-2.33993 -0.277661,-1.39503 -1.346234,-2.20965 -1.093734,-0.83982 -2.517834,-0.55637 -0.86221,0.17161 -1.507807,0.72311 -0.645597,0.5515 -0.921459,1.39198 -0.266174,0.83856 -0.07721,1.78796 0.129189,0.64908 0.463843,1.16662 0.334654,0.51754 0.803195,0.79693 0.6757,0.40938 1.431344,0.25898 0.406886,-0.081 0.777136,-0.34604 0.546651,-0.3908 0.622833,-1.07069 l 0.09297,0.0117 q -0.04524,0.73416 -0.541615,1.22574 -0.370343,0.36579 -0.980671,0.48726 -0.193755,0.0386 -0.422358,0.0538 -1.166247,0.0609 -1.965679,-0.61591 -0.80136,-0.68651 -1.01539,-1.76185 -0.21403,-1.07534 0.135525,-2.001 0.357313,-0.93727 1.150202,-1.55837 0.802576,-0.62303 1.858541,-0.8332 1.172218,-0.23331 2.181205,0.0795 1.008987,0.31283 1.657271,1.03987 0.656044,0.71544 0.850792,1.6939 0.16004,0.80408 5.25e-4,1.5207 -0.151756,0.70499 -0.524168,1.21219 -0.744824,1.0144 -1.857127,1.39693 0.815559,-0.001 2.558887,0.15542 1.745256,0.16628 1.754944,0.16435 1.472164,0.10985 2.760635,-0.1466 0.736269,-0.14654 1.42424,-0.43455 0.988338,-0.39814 1.417042,-1.02733 l 0.04839,0.0407 q -0.178657,0.46863 -0.911444,1.03749 z"
         style="font-style:normal;font-variant:normal;font-weight:normal;font-stretch:normal;font-size:9.87777805px;font-family:'Cinzel Decorative';-inkscape-font-specification:'Cinzel Decorative';fill:#ffffff;fill-opacity:1"
         id="path2099"
         inkscape:connector-curvature="0" />
      <path
         d="m 95.399924,145.75252 q -0.399026,0.15715 -0.722686,0.19587 -0.313852,0.0375 -0.563741,0.0276 -0.249889,-0.01 -0.548395,-0.0936 -0.287524,-0.075 -0.550317,-0.19283 -0.262794,-0.11779 -0.533799,-0.30423 -0.494567,-0.30893 -0.917709,-0.68609 -0.413335,-0.37834 -1.601203,-1.41014 -1.189042,-1.04162 -1.578068,-1.38307 -0.389027,-0.34144 -0.577723,-0.33877 l -0.01173,-0.0981 q 0.568857,-0.068 0.75286,-0.10994 0.192638,-0.0529 0.401373,-0.13754 0.207561,-0.0945 0.341775,-0.21995 0.534087,-0.44191 0.430854,-1.30501 -0.08564,-0.71597 -0.460913,-1.1088 -0.365469,-0.39401 -0.945306,-0.33461 l -1.216176,0.14547 0.69917,5.84549 q 0.02933,0.2452 0.228158,0.41043 0.208638,0.16406 0.473451,0.13239 l 0.117694,-0.0141 0.02154,0.0969 -2.147923,0.25691 -0.01173,-0.0981 0.127502,-0.0153 q 0.245197,-0.0293 0.41043,-0.22816 0.165234,-0.19883 0.144541,-0.45501 l -0.651072,-5.44337 q -0.04031,-0.25383 -0.247774,-0.40808 -0.198831,-0.16524 -0.453836,-0.13474 l -0.127502,0.0153 -0.01173,-0.0981 2.648125,-0.31674 q 0.863093,-0.10324 1.441565,0.32498 0.587107,0.41724 0.683302,1.22149 0.09502,0.79443 -0.316352,1.43058 -0.412545,0.62634 -1.108904,0.70963 0,0 -0.0098,0.001 0.375699,0.3132 0.853747,0.73353 1.920824,1.67036 2.458892,2.09346 0.538068,0.42311 0.937325,0.68375 0.410239,0.26927 0.712263,0.38237 0.616204,0.24464 1.185061,0.1766 0.117694,-0.0141 0.233042,-0.0478 z"
         style="font-style:normal;font-variant:normal;font-weight:normal;font-stretch:normal;font-size:9.87777805px;font-family:'Cinzel Decorative';-inkscape-font-specification:'Cinzel Decorative';fill:#ffffff;fill-opacity:1"
         id="path2101"
         inkscape:connector-curvature="0" />
      <path
         d="m 95.79034,141.54344 q -0.475255,0.69938 -0.43159,1.4785 0.05196,0.92706 0.859819,1.39623 0.470801,0.28031 1.042814,0.24825 0.581876,-0.0326 0.993242,-0.28321 0.775633,-0.45898 0.819536,-1.44088 0.006,-0.0696 0.0021,-0.13862 -0.02045,-0.36491 -0.251326,-0.77738 -0.221013,-0.41303 -0.694577,-0.74264 l -1.8537,-1.30096 q -0.607301,-0.42106 -0.64765,-1.141 -0.04035,-0.71995 0.395544,-1.23905 0.435339,-0.52895 1.224323,-0.57317 0.394492,-0.0221 0.863548,0.0505 l 0.394492,-0.0221 0.08771,1.21196 -0.09862,0.006 q -0.03639,-0.47283 -0.386635,-0.72032 -0.340932,-0.25791 -0.843909,-0.22972 -0.493115,0.0276 -0.809641,0.38175 -0.317078,0.34425 -0.287784,0.86695 0.02874,0.51284 0.482028,0.8337 l 1.905223,1.33764 q 1.13294,0.79722 1.200924,2.01029 0.05085,0.90733 -0.632618,1.59859 -0.58982,0.59697 -1.625361,0.65501 -0.631188,0.0354 -1.137568,-0.17369 -0.951376,-0.38198 -1.197348,-1.41689 -0.03843,-0.15614 -0.0517,-0.39283 -0.01382,-0.24656 0.10104,-0.66851 0.114305,-0.43182 0.48503,-0.87801 z"
         style="font-style:normal;font-variant:normal;font-weight:normal;font-stretch:normal;font-size:9.87777805px;font-family:'Cinzel Decorative';-inkscape-font-specification:'Cinzel Decorative';fill:#ffffff;fill-opacity:1"
         id="path2103"
         inkscape:connector-curvature="0" />
      <path
         d="m 102.09899,138.90497 q -0.30433,-0.36705 -0.3025,-0.72265 0.002,-0.36547 0.17112,-0.62143 0.16929,-0.26583 0.54556,-0.4417 0.37631,-0.18574 0.85044,-0.1833 l 4.04984,0.0208 q 0.3062,0.002 0.67198,-0.0558 0.37566,-0.0573 0.52413,-0.11584 l -0.006,1.24458 -0.0987,-0.0104 8.6e-4,-0.16792 q 0.001,-0.23706 -0.16583,-0.40584 -0.16701,-0.17866 -0.39415,-0.18971 l -1.87675,-0.01 -0.0304,5.91671 q 0.008,0.35564 0.31334,0.53502 0.14776,0.0798 0.31568,0.0806 l 0.12841,6.6e-4 -5.1e-4,0.0988 -2.1632,-0.0111 5.1e-4,-0.0988 0.1284,6.6e-4 q 0.25682,10e-4 0.43554,-0.17556 0.18859,-0.17684 0.19973,-0.42373 l 0.0305,-5.92659 -2.06442,-0.0106 q -0.79022,-0.004 -1.1484,0.49786 -0.189,0.25586 -0.19047,0.54231 -0.001,0.27657 0.15504,0.58359 z"
         style="font-style:normal;font-variant:normal;font-weight:normal;font-stretch:normal;font-size:9.87777805px;font-family:'Cinzel Decorative';-inkscape-font-specification:'Cinzel Decorative';fill:#ffffff;fill-opacity:1"
         id="path2105"
         inkscape:connector-curvature="0" />
      <path
         d="m 120.59648,136.0253 q 0.0788,0.006 0.16745,0.0126 l -0.007,0.0985 q -1.0835,-0.0815 -1.76796,0.59018 -0.68372,0.6618 -0.78518,2.01125 l -0.24662,3.28004 q -0.0867,1.15245 -0.86887,1.80684 -0.78222,0.6544 -1.99377,0.5633 -1.21155,-0.0911 -1.91741,-0.84747 -0.69528,-0.76548 -0.60863,-1.91793 l 0.29254,-3.89074 q 0.0215,-0.28565 -0.22426,-0.4428 -0.11375,-0.068 -0.2615,-0.0791 l -0.1576,-0.0118 0.007,-0.0985 1.99954,0.15034 -0.007,0.0985 -0.1576,-0.0119 q -0.21669,-0.0163 -0.37481,0.1105 -0.15738,0.11694 -0.18278,0.32305 l -0.28291,3.76269 q -0.0807,1.07365 0.44095,1.77655 0.53227,0.6938 1.46802,0.76415 0.99485,0.0748 1.64235,-0.50057 0.64751,-0.57537 0.72379,-1.58992 l 0.24588,-3.27019 q 0.10887,-1.44795 0.89183,-2.11219 0.79281,-0.6635 1.96496,-0.57537 z"
         style="font-style:normal;font-variant:normal;font-weight:normal;font-stretch:normal;font-size:9.87777805px;font-family:'Cinzel Decorative';-inkscape-font-specification:'Cinzel Decorative';fill:#ffffff;fill-opacity:1"
         id="path2107"
         inkscape:connector-curvature="0" />
      <path
         d="m 130.27179,137.21392 q 0.36593,-0.17464 0.84413,-0.23248 0.4782,-0.0578 0.76146,-0.0152 0.28327,0.0427 0.36141,0.0544 l -0.0147,0.0977 q -0.46202,-0.0496 -0.88751,0.0561 -0.424,0.096 -0.72009,0.27114 -0.28485,0.16687 -0.582,0.48173 -0.29568,0.30509 -0.4692,0.52868 -0.16376,0.22507 -0.39695,0.57953 l -3.6098,5.52976 q -0.48056,0.73675 -0.51292,0.95163 l -0.0879,-0.0132 -1.80176,-6.67442 q -0.0897,-0.33316 -0.31179,-0.51645 -0.21089,-0.19159 -0.45508,-0.22836 l -0.0781,-0.0118 0.0147,-0.0977 2.19772,0.33099 -0.0147,0.0977 -0.0879,-0.0132 q -0.29303,-0.0441 -0.4319,0.21465 -0.0284,0.0557 -0.0401,0.1338 -0.0118,0.0781 0.0194,0.20271 l 1.2706,5.42569 3.29471,-5.42738 q 0.78076,-1.27091 1.73835,-1.72604 z"
         style="font-style:normal;font-variant:normal;font-weight:normal;font-stretch:normal;font-size:9.87777805px;font-family:'Cinzel Decorative';-inkscape-font-specification:'Cinzel Decorative';fill:#ffffff;fill-opacity:1"
         id="path2109"
         inkscape:connector-curvature="0" />
      <path
         d="m 144.43729,139.92008 q 0.0673,0.0158 0.12501,0.0294 l -0.0226,0.0962 q -0.45646,-0.087 -0.90552,0.0104 -0.44906,0.0974 -0.79119,0.30112 -0.33988,0.19409 -0.6684,0.51261 -0.52474,0.50579 -0.97477,1.21179 l -3.10493,4.92213 q -0.33468,0.5606 -0.46238,1.01764 l -0.0865,-0.0203 -0.6713,-5.95162 -2.68707,4.48254 q -0.60153,1.00524 -1.51316,1.43025 -0.66392,0.32088 -1.35626,0.15817 -0.2404,-0.0565 -0.49608,-0.17746 l 0.0418,-0.0916 q 0.13746,0.0628 0.32016,0.10568 0.19231,0.0452 0.52714,0.002 0.34443,-0.0408 0.72219,-0.26659 0.7674,-0.45891 1.31863,-1.29333 L 133.1,140.45201 q -0.0476,-0.31559 -0.2541,-0.51632 -0.20424,-0.21035 -0.45425,-0.26911 l -0.0769,-0.0181 0.0226,-0.0962 2.13471,0.50167 -0.0226,0.0962 -0.0866,-0.0203 q -0.20193,-0.0475 -0.33934,0.0623 -0.12553,0.1024 -0.15265,0.21779 -0.0271,0.11539 -0.0209,0.21833 l 0.36109,5.02639 3.08566,-5.09916 0.0843,0.03 0.65202,5.7746 2.54173,-4.42538 q 0.44661,-0.77782 1.12405,-1.3289 1.25761,-1.0337 2.73844,-0.68569 z"
         style="font-style:normal;font-variant:normal;font-weight:normal;font-stretch:normal;font-size:9.87777805px;font-family:'Cinzel Decorative';-inkscape-font-specification:'Cinzel Decorative';fill:#ffffff;fill-opacity:1"
         id="path2111"
         inkscape:connector-curvature="0" />
      <path
         d="m 148.61311,151.06981 0.13169,0.0422 -0.0302,0.0941 -2.29509,-0.73587 0.0302,-0.0941 0.11288,0.0362 q 0.20693,0.0663 0.38012,-0.0856 0.099,-0.0824 0.12918,-0.17642 0.0302,-0.0941 0.0133,-0.2032 l -0.71569,-2.75013 -2.66887,2.07988 q -0.96604,0.74832 -1.76959,0.95747 -0.6417,0.15731 -1.28132,-0.0478 -0.16931,-0.0543 -0.33259,-0.12738 l 0.0302,-0.0941 q 0.66748,0.18289 1.37926,-0.12829 0.60602,-0.27249 1.21929,-0.72936 0.11783,-0.0763 0.37798,-0.27299 l 2.89885,-2.18248 -0.78778,-3.04294 q -0.1202,-0.4016 -0.41997,-0.66368 -0.164,-0.13557 -0.35212,-0.19588 l -0.13169,-0.0422 0.0302,-0.0941 2.27629,0.72983 -0.0302,0.0941 -0.11288,-0.0362 q -0.12228,-0.0392 -0.26531,0.0187 -0.29848,0.12213 -0.25727,0.44654 l 0.63047,2.40124 2.6293,-1.98884 q 0.90127,-0.67572 1.56782,-0.84581 0.66655,-0.1701 1.31557,0.038 0.12228,0.0392 0.24155,0.0878 l -0.0302,0.0941 q -0.45451,-0.13536 -0.86551,-0.0182 -0.22094,0.0744 -0.38279,0.12622 -0.16184,0.0518 -0.4069,0.20148 -0.23566,0.15265 -0.35048,0.21957 -0.1054,0.0699 -0.36253,0.25719 -0.24471,0.18087 -0.29741,0.21583 l -2.92441,2.1328 0.90158,3.43211 q 0.0939,0.28944 0.28721,0.52775 0.20571,0.23193 0.48789,0.32241 z"
         style="font-style:normal;font-variant:normal;font-weight:normal;font-stretch:normal;font-size:9.87777805px;font-family:'Cinzel Decorative';-inkscape-font-specification:'Cinzel Decorative';fill:#ffffff;fill-opacity:1"
         id="path2113"
         inkscape:connector-curvature="0" />
      <path
         d="m 153.31319,144.91246 q 0.0643,0.0255 0.2296,0.0909 0.1653,0.0655 0.42818,0.23333 0.26287,0.16786 0.458,0.37263 0.20795,0.19923 0.35752,0.4922 0.16239,0.28743 0.25859,0.52739 0.0998,0.23078 0.15603,0.57176 0.0654,0.34462 0.09,0.57749 0.0338,0.2365 0.0387,0.59967 0.009,0.46037 -0.006,0.79426 -0.0117,0.32471 -0.0135,0.3559 -0.002,0.0312 0.002,0.0752 -0.002,0.0844 -0.005,0.14676 0.053,-0.0534 0.26315,-0.28887 0.21014,-0.23551 0.38009,-0.42318 0.17913,-0.18404 0.52285,-0.51537 0.34371,-0.33134 0.58158,-0.50274 0.25069,-0.17694 0.6095,-0.38544 0.35881,-0.20849 0.66306,-0.27923 0.74416,-0.16211 1.40538,0.0998 l -0.0364,0.0918 q -0.51429,-0.20369 -1.27072,0.12355 -0.74726,0.33088 -1.43851,0.94955 -0.67842,0.61312 -1.25374,1.34145 -0.56249,0.72278 -0.79164,1.30135 l -0.53468,1.35001 q -0.13094,0.33061 0.0883,0.60868 0.10502,0.13721 0.27033,0.20268 l 0.1102,0.0436 -0.0364,0.0918 -2.00205,-0.79292 0.0364,-0.0918 0.11939,0.0473 q 0.22959,0.0909 0.46956,-0.005 0.23996,-0.0962 0.34371,-0.33134 l 0.54195,-1.36837 q 0.2437,-0.61531 0.31391,-1.54369 0.0702,-0.92838 -0.0356,-1.84149 -0.10219,-0.92228 -0.45508,-1.66763 -0.35288,-0.74535 -0.89472,-0.95995 z"
         style="font-style:normal;font-variant:normal;font-weight:normal;font-stretch:normal;font-size:9.87777805px;font-family:'Cinzel Decorative';-inkscape-font-specification:'Cinzel Decorative';fill:#ffffff;fill-opacity:1"
         id="path2115"
         inkscape:connector-curvature="0" />
      <path
         d="m 167.37537,160.24754 q -1.28717,0.57022 -2.68837,-0.0944 -1.07098,-0.50795 -2.00879,-1.41192 -1.06415,-1.02947 -1.6436,-1.69787 -1.08658,-1.25876 -1.52904,-1.50142 l -0.1071,-0.0508 0.0381,-0.0803 6.55065,-4.13039 -3.00766,-1.42651 q -0.30768,-0.13499 -0.58216,0.0519 -0.13066,0.0911 -0.19838,0.23388 l -0.0762,0.16065 -0.0892,-0.0423 0.53336,-1.12453 q 0.10847,0.11704 0.42222,0.33144 0.31374,0.21441 0.43869,0.27367 0.13387,0.0635 0.1428,0.0677 l 2.49002,1.181 q 0.37485,0.17779 0.65483,0.25592 0.27999,0.0781 0.34623,0.0768 l -0.0381,0.0803 -6.8209,4.30832 q 0.0719,0.0559 0.81104,0.75637 2.5782,2.44726 4.05079,3.1457 1.13345,0.53758 2.30006,0.54427 z"
         style="font-style:normal;font-variant:normal;font-weight:normal;font-stretch:normal;font-size:9.87777805px;font-family:'Cinzel Decorative';-inkscape-font-specification:'Cinzel Decorative';fill:#ffffff;fill-opacity:1"
         id="path2117"
         inkscape:connector-curvature="0" />
    </g>
    <text
       xml:space="preserve"
       style="font-style:normal;font-variant:normal;font-weight:normal;font-stretch:normal;font-size:5.64444447px;line-height:1.25;font-family:'Cinzel Decorative';-inkscape-font-specification:'Cinzel Decorative';letter-spacing:0px;word-spacing:0px;fill:#000000;fill-opacity:1;stroke:none;stroke-width:0.26458332"
       x="72.846977"
       y="197.843"
       id="text1934"><tspan
         sodipodi:role="line"
         id="tspan1932"
         x="72.846977"
         y="197.843"
         style="font-size:8.46666622px;fill:#ffffff;fill-opacity:1;stroke-width:0.26458332">1 2 3 4 5 6 7 8 9 0</tspan></text>
    <text
       xml:space="preserve"
       style="font-style:normal;font-variant:normal;font-weight:normal;font-stretch:normal;font-size:8.46666622px;line-height:1.25;font-family:'Cinzel Decorative';-inkscape-font-specification:'Cinzel Decorative';letter-spacing:0px;word-spacing:0px;fill:#ffffff;fill-opacity:1;stroke:none;stroke-width:0.26458332"
       x="147.01192"
       y="144.16182"
       id="text1938"><tspan
         sodipodi:role="line"
         id="tspan1936"
         x="147.01192"
         y="144.16182"
         style="font-size:8.46666622px;fill:#ffffff;fill-opacity:1;stroke-width:0.26458332">Yes</tspan></text>
    <text
       id="text1942"
       y="143.83905"
       x="50.928513"
       style="font-style:normal;font-variant:normal;font-weight:normal;font-stretch:normal;font-size:8.46666622px;line-height:1.25;font-family:'Cinzel Decorative';-inkscape-font-specification:'Cinzel Decorative';letter-spacing:0px;word-spacing:0px;fill:#ffffff;fill-opacity:1;stroke:none;stroke-width:0.26458332"
       xml:space="preserve"><tspan
         style="font-size:8.46666622px;fill:#ffffff;fill-opacity:1;stroke-width:0.26458332"
         y="143.83905"
         x="50.928513"
         id="tspan1940"
         sodipodi:role="line">No</tspan></text>
    <path
       style="color:#000000;font-style:normal;font-variant:normal;font-weight:normal;font-stretch:normal;font-size:medium;line-height:normal;font-family:sans-serif;font-variant-ligatures:normal;font-variant-position:normal;font-variant-caps:normal;font-variant-numeric:normal;font-variant-alternates:normal;font-feature-settings:normal;text-indent:0;text-align:start;text-decoration:none;text-decoration-line:none;text-decoration-style:solid;text-decoration-color:#000000;letter-spacing:normal;word-spacing:normal;text-transform:none;writing-mode:lr-tb;direction:ltr;text-orientation:mixed;dominant-baseline:auto;baseline-shift:baseline;text-anchor:start;white-space:normal;shape-padding:0;clip-rule:nonzero;display:inline;overflow:visible;visibility:visible;opacity:1;isolation:auto;mix-blend-mode:normal;color-interpolation:sRGB;color-interpolation-filters:linearRGB;solid-color:#000000;solid-opacity:1;vector-effect:none;fill:#ffffff;fill-opacity:1;fill-rule:nonzero;stroke:none;stroke-width:0.56499988;stroke-linecap:butt;stroke-linejoin:miter;stroke-miterlimit:4;stroke-dasharray:none;stroke-dashoffset:0;stroke-opacity:1;color-rendering:auto;image-rendering:auto;shape-rendering:auto;text-rendering:auto;enable-background:accumulate"
       d="m 101.14008,202.95701 c -0.9614,0.0144 -2.136498,0.38338 -2.984316,0.709 -0.112048,0.0377 -0.239197,0.0842 -0.353467,0.12351 -0.77365,-0.44721 -1.566604,-0.80771 -2.509923,-0.80771 -1.019661,-0.11478 -2.814947,0.51481 -1.851567,2.19987 -0.81956,0.22795 -1.683697,0.49291 -2.254126,0.50591 -0.93283,0.015 -1.400222,-0.89883 -1.66553,-2.46703 l -0.261483,1.68052 c 0.381958,1.26624 1.271146,1.37904 1.940965,1.35133 0.69315,-0.0158 1.607614,-0.29735 2.502172,-0.555 0.363072,0.2975 0.890675,0.49403 1.556497,0.49403 0.650798,0 1.547132,-0.25773 2.581753,-0.58963 0.375457,-0.12044 0.788115,-0.25685 1.185974,-0.39067 1.272571,0.89068 4.397361,1.18774 3.958931,-1.07798 0.47188,-0.0824 0.84066,-0.28644 1.26504,-0.20825 -0.10673,0.17304 -0.16743,0.38273 -0.16743,0.61236 0,0.36592 -0.0383,0.59879 -0.0739,0.73846 -0.66081,-0.29198 -0.93148,0.21852 -1.08004,0.72657 -0.40943,-0.26113 -1.13026,-0.27321 -1.4118,0.39119 -0.27718,1.06228 1.2869,1.86971 1.67535,0.42892 0.4415,0.58005 0.4376,0.88584 0.43977,1.35754 l 0.52245,2.02933 c 0.18493,-2.5618 0.11284,-3.22522 -0.74207,-3.91036 0.11279,-0.71191 0.70532,-0.37775 0.80976,-0.18241 0.54264,-0.40784 0.36863,-1.37625 0.50282,-1.84795 0.13419,0.47169 -0.0398,1.4401 0.50281,1.84795 0.10444,-0.19534 0.69698,-0.5295 0.80977,0.18241 -0.85492,0.68514 -0.92649,1.34856 -0.74156,3.91036 l 0.52245,-2.02933 c 0.002,-0.4717 -0.002,-0.77749 0.43977,-1.35754 0.38845,1.44079 1.95253,0.63336 1.67535,-0.42892 -0.28154,-0.6644 -1.00237,-0.65232 -1.4118,-0.39119 -0.14856,-0.50805 -0.41923,-1.01855 -1.08004,-0.72657 -0.0356,-0.13967 -0.0739,-0.37254 -0.0739,-0.73846 0,-0.22953 -0.0608,-0.43936 -0.16743,-0.61236 0.42438,-0.0782 0.79316,0.1258 1.26504,0.20825 -0.43843,2.26572 2.68636,1.96866 3.95893,1.07798 0.39786,0.13382 0.81051,0.27023 1.18597,0.39067 1.03463,0.3319 1.93096,0.58963 2.58176,0.58963 0.66582,0 1.19342,-0.19653 1.55649,-0.49403 0.89456,0.25765 1.80903,0.53921 2.50218,0.555 0.66982,0.0277 1.55848,-0.0851 1.94044,-1.35133 l -0.26148,-1.68052 c -0.26531,1.5682 -0.73218,2.482 -1.66501,2.46703 -0.57043,-0.013 -1.43457,-0.27796 -2.25413,-0.50591 0.96338,-1.68506 -0.83242,-2.31465 -1.85208,-2.19987 -0.94332,0 -1.73576,0.3605 -2.50941,0.80771 -0.11427,-0.0393 -0.24142,-0.0858 -0.35346,-0.12351 -0.84783,-0.32562 -2.02292,-0.69457 -2.98432,-0.709 v 5.2e-4 c -0.58172,0.0694 -0.98645,0.016 -1.6092,0.65577 -0.36376,-0.0671 -0.81157,-0.22731 -1.11932,-0.23048 -0.31956,-0.003 -0.60913,0.0324 -0.85782,0.14056 -0.24866,-0.10815 -0.53782,-0.14374 -0.85732,-0.14056 -0.30775,0.003 -0.75555,0.16338 -1.11931,0.23048 -0.62275,-0.63978 -1.02748,-0.58637 -1.6092,-0.65577 z m 0,0.5147 c 0.76023,0.0418 0.76991,0.17582 0.99632,0.29352 -0.96917,0.23965 -1.61511,0.32219 -2.965194,0.80357 -0.191551,-0.0956 -0.472057,-0.30147 -0.712618,-0.447 1.112311,-0.36893 2.116702,-0.68109 2.681492,-0.65009 z m 7.17217,0 c 0.56479,-0.031 1.56918,0.28116 2.68149,0.65009 -0.24056,0.14553 -0.52107,0.35137 -0.71262,0.447 -1.35008,-0.48138 -1.99602,-0.56392 -2.96519,-0.80357 0.22641,-0.1177 0.23609,-0.25176 0.99632,-0.29352 z m -13.052948,0.0501 c 0.636838,0 1.246639,0.21667 1.839679,0.50953 -0.896789,0.31629 -1.806032,0.64725 -2.696993,0.93586 -0.175469,0.0569 -0.283699,0.049 -0.455268,0.10129 -0.112512,-0.16008 -0.242295,-0.32077 -0.240295,-0.49196 0.0048,-0.49475 0.446135,-1.05472 1.552877,-1.05472 z m 18.933728,0 c 1.10674,0 1.54805,0.55997 1.55287,1.05472 0.002,0.17119 -0.12778,0.33188 -0.24029,0.49196 -0.17157,-0.0523 -0.2798,-0.0444 -0.45527,-0.10129 -0.89096,-0.28861 -1.8002,-0.61957 -2.69699,-0.93586 0.59304,-0.29286 1.20284,-0.50953 1.83968,-0.50953 z m -11.71918,0.71882 c 0.58339,0.95979 -1.23329,1.71081 -2.755391,0.77205 0.667451,-0.26098 1.744811,-0.64614 2.755391,-0.77205 z m 4.50463,0 c 1.01058,0.12591 2.08742,0.51107 2.75487,0.77205 -1.5221,0.93876 -3.33826,0.18774 -2.75487,-0.77205 z m 4.73046,0.16537 v 5.1e-4 c 0.98912,0.34406 2.02939,0.72298 3.0546,1.05834 -0.19259,0.054 -0.30193,0.16019 -0.57051,0.16019 -0.48753,0 -1.38667,-0.23457 -2.40812,-0.56224 -0.23935,-0.0768 -0.51557,-0.1681 -0.7674,-0.25218 0.002,-0.001 0.004,-0.003 0.006,-0.004 0.21885,-0.14824 0.45801,-0.26249 0.68575,-0.40049 z m -13.965553,5.1e-4 c 0.227558,0.13784 0.466572,0.25187 0.685229,0.39998 0.002,0.001 0.0042,0.003 0.0062,0.004 -0.25183,0.0841 -0.528044,0.17538 -0.767394,0.25218 -1.021451,0.32767 -1.920592,0.56224 -2.408121,0.56224 -0.268582,0 -0.377918,-0.10619 -0.570508,-0.16019 1.02521,-0.33536 2.065472,-0.71428 3.054593,-1.05834 z m 4.610573,1.93012 c 0.10817,-0.007 0.23166,0.0238 0.35502,0.10542 0.16655,0.22288 -0.10348,0.79065 -0.50902,0.57464 -0.35833,-0.3053 -0.17053,-0.65982 0.154,-0.68006 z m 4.7439,0 c 0.32452,0.0202 0.51284,0.37476 0.15451,0.68006 -0.40554,0.21601 -0.67557,-0.35176 -0.50902,-0.57464 0.12336,-0.0817 0.24633,-0.11217 0.35451,-0.10542 z"
       id="path1948"
       inkscape:connector-curvature="0" />
    <path
       style="fill:#ffffff;fill-opacity:0;stroke:none;stroke-width:0.86500001;stroke-miterlimit:4;stroke-dasharray:none;stroke-opacity:1"
       id="path1981"
       d="m 155.55638,160.35506 c -0.45242,0.17657 -0.93758,0.35021 -1.43148,0.32909 -0.13293,-0.006 -0.26362,-0.0362 -0.39543,-0.0544 -0.13735,-0.0523 -0.28055,-0.0912 -0.41205,-0.15685 -0.65972,-0.32923 -1.15002,-0.92257 -1.50797,-1.55293 -0.0966,-0.17016 -0.17386,-0.35064 -0.26079,-0.52596 -0.25123,-0.61935 -0.36802,-1.28848 -0.0807,-1.91892 0.15178,-0.33301 0.26678,-0.41384 0.51188,-0.6772 0.84644,-0.59703 1.7707,-1.27298 2.84812,-1.23782 0.45352,0.0148 0.55075,0.0794 0.98072,0.21737 0.15371,0.0808 0.31488,0.1488 0.46112,0.24245 0.87487,0.56023 1.28443,1.40929 1.6876,2.32494 0.42055,1.1177 0.66113,2.29013 1.03832,3.42207 0.23845,0.6292 0.52657,1.25837 0.98029,1.76512 0.28834,0.32205 0.39857,0.37548 0.74395,0.62896 0.5552,0.31709 1.17107,0.55348 1.82254,0.48221 0.40854,-0.0447 0.50786,-0.12195 0.88097,-0.28456 -0.24123,0.12844 -0.45267,0.35022 -0.72371,0.38531 -0.17606,0.0228 0.27858,-0.22102 0.40639,-0.34422 0.5689,-0.54834 0.93718,-1.20054 1.29003,-1.89704 0.28364,-0.68769 0.55838,-1.42136 0.57473,-2.17591 0.002,-0.0951 -0.008,-0.19011 -0.0121,-0.28517 -0.0412,-0.20591 -0.10439,-0.48883 -0.34069,-0.5614 -0.0938,-0.0288 -0.22815,-5.3e-4 -0.31791,0.0106 -0.41913,0.17654 -1.28688,0.61271 0.52759,-0.3428 0.0959,-0.0505 -0.18202,0.11788 -0.27021,0.18089 -0.26711,0.19085 -0.31372,0.24121 -0.56716,0.45918 -0.52242,0.47211 -0.96771,1.02762 -1.22211,1.69042 -0.054,0.14064 -0.0921,0.28687 -0.13811,0.43031 -0.1862,0.8015 -0.0596,1.61133 0.31418,2.34105 0.0759,0.14814 0.1697,0.28635 0.25456,0.42953 0.36258,0.5424 0.83951,0.99078 1.39752,1.32817 0.32051,0.19379 0.48624,0.25369 0.82655,0.40333 0.58691,0.25546 1.22397,0.369 1.81703,0.60711 0.10627,0.0427 0.20874,0.0943 0.31311,0.14144 0.38015,0.20885 0.7398,0.47282 1.00941,0.81699 0.15308,0.19541 0.18338,0.27834 0.29466,0.49433 0.17495,0.42339 0.14353,0.86532 -0.16348,1.2209 -0.0706,0.0818 -0.15619,0.14933 -0.23428,0.224 -0.84644,0.57949 -1.73932,1.15479 -2.78345,1.20815 -0.51196,0.0262 -0.56924,-0.0157 -1.07546,-0.1097 -0.73733,-0.23266 -1.36834,-0.67046 -1.76729,-1.34402 -0.25442,-0.42955 -0.25779,-0.57647 -0.38312,-1.05274 -0.13629,-0.99557 0.12577,-1.95935 0.60199,-2.83213 0.10076,-0.18465 0.21849,-0.35953 0.32773,-0.53929 0.78419,-1.19888 1.945,-2.02344 3.13384,-2.78008 1.47001,-0.88575 -0.28134,0.16398 2.37752,-1.38767 0.16986,-0.0991 -0.6323,0.44608 -0.51467,0.28848 0.12937,-0.17333 0.37087,-0.22278 0.55286,-0.33964 0.50184,-0.32225 0.47788,-0.31937 0.93447,-0.67371 0.47496,-0.41936 0.87368,-0.9301 0.99336,-1.56807 0.0768,-0.40933 0.0336,-0.58136 -5.3e-4,-0.99618 -0.14781,-0.89739 -0.58842,-1.68534 -1.09338,-2.42616 0,0 1.15957,-0.67868 1.15957,-0.67868 v 0 c 0.49206,0.77129 0.94461,1.57824 1.11474,2.48898 0.0451,0.4214 0.0941,0.61563 0.0309,1.03572 -0.10005,0.66455 -0.48821,1.20732 -0.97271,1.6513 -0.14645,0.11647 -0.28858,0.23859 -0.43936,0.34941 -0.84603,0.62183 -1.89603,1.17449 -2.77473,1.68566 -0.15952,0.0928 0.63375,-0.3783 0.47792,-0.27945 -0.2091,0.13263 -0.42519,0.2539 -0.63779,0.38086 -1.18315,0.73928 -2.34496,1.54302 -3.13865,2.71775 -0.11016,0.17568 -0.22844,0.34654 -0.33048,0.52706 -0.47532,0.84092 -0.75136,1.7734 -0.63489,2.74342 0.11424,0.45522 0.11552,0.59951 0.35799,1.00918 0.38353,0.64801 0.99808,1.0554 1.71241,1.25729 0.17802,0.027 0.35441,0.0689 0.53405,0.081 0.33141,0.0224 0.6886,-0.0144 1.01177,-0.0896 0.1472,-0.0342 0.53728,-0.24365 0.43308,-0.13419 -0.21406,0.22489 -0.52757,0.32785 -0.78401,0.50287 -0.0991,0.0676 0.20769,-0.12027 0.31153,-0.1804 0.48138,-0.39826 0.67781,-0.64604 0.46945,-1.28016 -0.0387,-0.078 -0.0723,-0.15886 -0.11624,-0.2341 -0.26007,-0.4456 -0.67915,-0.76643 -1.12908,-1.00331 -0.68895,-0.29859 -1.42269,-0.46758 -2.11432,-0.75998 -0.34563,-0.15867 -0.51177,-0.22164 -0.8369,-0.42533 -0.56767,-0.35564 -1.05328,-0.82179 -1.42379,-1.38019 -0.0874,-0.14788 -0.18351,-0.2909 -0.26208,-0.44363 -0.38697,-0.75221 -0.53604,-1.58913 -0.36564,-2.42166 0.0431,-0.14767 0.078,-0.29798 0.12917,-0.44302 0.23904,-0.677 0.66928,-1.25316 1.18938,-1.74061 0.76367,-0.69087 1.21845,-0.91223 2.2404,-1.48081 0.0724,-0.0403 0.14978,-0.072 0.2284,-0.0981 0.0698,-0.0233 0.14339,-0.0331 0.21508,-0.0496 0.0666,0.002 0.134,-0.006 0.19977,0.004 0.3675,0.0587 0.50435,0.41673 0.55826,0.73993 0.004,0.10117 0.0148,0.2023 0.0122,0.30352 -0.0194,0.75823 -0.3074,1.54516 -0.5876,2.23909 -0.34438,0.70024 -0.71426,1.37504 -1.26247,1.94081 -0.62428,0.6443 -0.98763,0.71127 -1.96814,1.28904 -0.39259,0.14677 -0.49127,0.21749 -0.91398,0.24217 -0.67091,0.0392 -1.30111,-0.21721 -1.86609,-0.55358 -0.35079,-0.26535 -0.46921,-0.32733 -0.76265,-0.66048 -0.45937,-0.52152 -0.75553,-1.16343 -0.99475,-1.80857 -0.37004,-1.13061 -0.60743,-2.30019 -1.02309,-3.41598 -0.39263,-0.88926 -0.7908,-1.71168 -1.65527,-2.23854 -0.14254,-0.0869 -0.29929,-0.14795 -0.44894,-0.22192 -0.15833,-0.0448 -0.31309,-0.10489 -0.47498,-0.13428 -0.31557,-0.0573 -0.63159,-0.051 -0.94563,0.0109 -0.1483,0.0293 -0.53457,0.24144 -0.43517,0.12756 0.19412,-0.22236 0.499,-0.31563 0.74358,-0.48087 0.11947,-0.0807 -0.24537,0.15145 -0.36806,0.22718 -0.24717,0.23613 -0.37313,0.31865 -0.53717,0.62471 -0.31656,0.59063 -0.22434,1.23436 0.0105,1.83428 0.084,0.17104 0.1578,0.34754 0.25215,0.51313 0.34552,0.60635 0.83207,1.17659 1.48266,1.4651 0.12792,0.0567 0.26654,0.0854 0.3998,0.12805 0.12744,0.0107 0.25444,0.0332 0.38231,0.032 0.50441,-0.005 0.9842,-0.20347 1.44441,-0.38723 0,0 -1.10371,0.86404 -1.10371,0.86404 z"
       inkscape:connector-curvature="0" />
    <path
       style="fill:#ffffff;fill-opacity:0;stroke:none;stroke-width:0.86500001;stroke-miterlimit:4;stroke-dasharray:none;stroke-opacity:1"
       id="path1987"
       d="m 165.74619,149.43456 c -0.58713,0.31572 0.48259,-0.31507 0.74923,-0.41883 0.14561,-0.0567 -0.25017,0.18776 -0.36756,0.29087 -0.56775,0.49871 -1.0569,1.07786 -1.55281,1.6451 -1.4607,1.73266 -2.77049,3.58608 -4.01842,5.47567 -0.49221,0.77568 -0.98694,1.55408 -1.39425,2.37907 -0.12064,0.24435 -0.31861,0.64664 -0.3474,0.94524 -0.007,0.0715 0.0287,0.14082 0.0431,0.21123 0.0509,0.0979 0.70558,-0.27579 0.52975,-0.20541 -0.20014,0.0801 -0.67532,0.47516 -0.58275,0.28047 0.13373,-0.28127 0.49075,-0.38389 0.72791,-0.58575 0.63898,-0.5439 1.16939,-1.05717 1.78371,-1.63396 1.77339,-1.74327 3.62236,-3.40561 5.59509,-4.92013 0.77897,-0.56492 1.61153,-1.10436 2.51111,-1.45706 0.26393,-0.10348 0.2204,0.40794 0.21729,0.4232 -0.0316,0.15475 -0.1183,0.29291 -0.17744,0.43936 -0.10759,0.19082 -0.21134,0.38385 -0.32276,0.57244 -0.33247,0.5627 -0.60385,0.9742 -0.96322,1.53025 -0.62448,0.96625 -1.25112,1.9311 -1.87527,2.89756 -0.59447,0.93515 -1.20878,1.85847 -1.76097,2.81983 -0.244,0.4248 -0.50994,0.89373 -0.67856,1.36024 -0.0474,0.13114 -0.0671,0.27069 -0.10071,0.40603 -0.25465,0.47304 0.72713,-0.1374 0.54661,-0.0932 -0.22831,0.056 -0.63049,0.52585 -0.64234,0.29108 -0.0138,-0.27329 0.42364,-0.34655 0.6305,-0.52566 0.24155,-0.20915 0.47635,-0.42597 0.71452,-0.63895 1.32458,-1.2224 2.65589,-2.44899 4.13195,-3.48954 0.23077,-0.16268 0.47007,-0.31292 0.70509,-0.46938 0.3787,0.16832 1.75539,-1.42712 2.55771,-1.17293 0.45704,0.14479 0.36292,0.74166 0.35039,1.0822 -0.046,0.20879 -0.081,0.42034 -0.1381,0.62637 -0.22763,0.82104 -0.57912,1.60701 -0.92132,2.38454 -0.26483,0.60176 -0.53513,1.2011 -0.80019,1.80275 -0.34814,0.82514 -0.69644,1.65393 -0.95959,2.51123 -0.0956,0.31145 -0.23561,0.7978 -0.23625,1.14413 -2.1e-4,0.11023 0.0415,0.21652 0.0622,0.32478 0.0601,0.0413 0.10831,0.11224 0.18029,0.12377 0.19586,0.0314 0.57408,-0.16989 0.7007,-0.23711 0.15897,-0.0844 0.63322,-0.33742 0.46395,-0.27623 -0.23454,0.0848 -0.44156,0.23197 -0.66234,0.34795 0,0 1.23457,-0.48244 1.23457,-0.48244 v 0 c -0.53487,0.32342 -1.06708,0.65127 -1.60461,0.97024 -0.31621,0.18763 -0.89863,0.57652 -1.29914,0.40521 -0.0928,-0.0397 -0.14287,-0.14245 -0.2143,-0.21367 -0.0191,-0.12461 -0.0603,-0.24781 -0.0572,-0.37384 0.009,-0.36027 0.16492,-0.86402 0.26912,-1.18809 0.27726,-0.8623 0.62952,-1.69867 0.98087,-2.53251 0.26275,-0.59962 0.53034,-1.19711 0.79128,-1.79752 0.33182,-0.76353 0.66963,-1.53505 0.88725,-2.34114 0.0529,-0.19594 0.085,-0.39692 0.12748,-0.59538 0.0102,-0.23355 0.12355,-0.80301 -0.25317,-0.88138 -0.10565,-0.022 -0.21858,-0.005 -0.32294,0.0228 -0.1563,0.0412 -0.51664,0.32798 -0.44995,0.18074 0.0806,-0.17787 0.33574,-0.19949 0.50361,-0.29923 -0.24287,0.15721 -0.49031,0.30757 -0.7286,0.47164 -1.4847,1.0222 -2.81874,2.24283 -4.12949,3.47452 -0.11587,0.10617 -1.1087,1.02707 -1.29148,1.15507 -0.52889,0.37039 -1.0787,0.71072 -1.63278,1.04225 -0.15343,0.0918 -0.47128,0.29512 -0.66034,0.0839 -0.0583,-0.0651 -0.0325,-0.17177 -0.0488,-0.25765 0.0422,-0.14721 0.0711,-0.2989 0.12661,-0.44162 0.18725,-0.48146 0.46411,-0.95599 0.72342,-1.39729 0.56606,-0.96339 1.18751,-1.89229 1.78655,-2.83506 1.04298,-1.62757 2.12162,-3.23739 3.05817,-4.92943 0.056,-0.1275 0.11719,-0.25286 0.16808,-0.38249 0.0214,-0.0544 0.0654,-0.11267 0.0482,-0.16848 -0.0116,-0.0375 -0.14244,-0.0127 -0.1118,-0.0373 0.26321,-0.21139 0.58002,-0.34839 0.84789,-0.55382 0.34803,-0.26689 -1.7803,1.0859 -1.10944,0.70732 -0.76527,0.57332 -0.8933,0.6562 -1.66561,1.29391 -1.38634,1.14474 -2.69705,2.37641 -3.98199,3.63286 -0.59259,0.5663 -1.11651,1.07855 -1.72737,1.62009 -0.22448,0.199 -0.43784,0.41399 -0.68609,0.58239 -0.54716,0.37119 -1.11482,0.71297 -1.69387,1.03213 -0.13181,0.0727 -0.27932,0.13466 -0.42977,0.13838 -0.0947,0.002 -0.17133,-0.0809 -0.25699,-0.1214 -0.0147,-0.0926 -0.054,-0.1845 -0.044,-0.27768 0.0336,-0.31271 0.25803,-0.74416 0.38835,-0.9979 0.42842,-0.83414 0.93679,-1.62413 1.44209,-2.41269 1.24567,-1.87949 2.54354,-3.72846 3.97349,-5.47351 0.95747,-1.13122 1.96823,-2.42819 3.47869,-2.83772 0,0 -1.1348,0.82448 -1.1348,0.82448 z"
       inkscape:connector-curvature="0" />
    <path
       style="color:#000000;font-style:normal;font-variant:normal;font-weight:normal;font-stretch:normal;font-size:medium;line-height:normal;font-family:sans-serif;font-variant-ligatures:normal;font-variant-position:normal;font-variant-caps:normal;font-variant-numeric:normal;font-variant-alternates:normal;font-feature-settings:normal;text-indent:0;text-align:start;text-decoration:none;text-decoration-line:none;text-decoration-style:solid;text-decoration-color:#000000;letter-spacing:normal;word-spacing:normal;text-transform:none;writing-mode:lr-tb;direction:ltr;text-orientation:mixed;dominant-baseline:auto;baseline-shift:baseline;text-anchor:start;white-space:normal;shape-padding:0;clip-rule:nonzero;display:inline;overflow:visible;visibility:visible;opacity:1;isolation:auto;mix-blend-mode:normal;color-interpolation:sRGB;color-interpolation-filters:linearRGB;solid-color:#000000;solid-opacity:1;vector-effect:none;fill:none;fill-opacity:1;fill-rule:nonzero;stroke:#ffffff;stroke-width:1.13385832;stroke-linecap:butt;stroke-linejoin:miter;stroke-miterlimit:4;stroke-dasharray:none;stroke-dashoffset:0;stroke-opacity:1;color-rendering:auto;image-rendering:auto;shape-rendering:auto;text-rendering:auto;enable-background:accumulate"
       d="m 188.95703,435.61719 c -4.07195,0.21267 -7.07558,1.12278 -9.14453,2.51172 -3.88857,2.69049 -4.95859,8.48558 -3.00586,12.54101 5.71684,1.59542 7.94052,8.01722 2.77734,11.85352 -0.10771,0.079 -0.24901,0.0771 -0.35937,0.15039 -2.36606,-5.588 -6.45328,-9.48609 -18.58594,-13.28516 3.15428,9.62442 6.16597,21.36353 15.84375,17.6836 -6.23917,9.75942 -16.56594,-5.18657 -16.75,-10.91993 -0.83637,6.98143 -1.98668,15.97386 -4.45312,17.32032 0,0 12.55263,14.7353 23.32617,22.25781 l -6.23633,-14.70313 c -3.27379,6.13516 -14.65795,-7.89107 -10.25,-13.04296 3.3481,6.04283 14.93109,9.84543 18.20117,-2.35352 7.90768,-2.60485 8.0645,-15.34087 -0.44726,-17.75977 -1.64599,-5.53262 3.02124,-9.02425 9.08398,-8.99023 z m 415.7832,0 v 3.26367 c 6.06274,-0.034 10.73193,3.45761 9.08594,8.99023 -8.51176,2.4189 -8.35494,15.15492 -0.44726,17.75977 3.27008,12.19895 14.85307,8.39635 18.20117,2.35352 4.40795,5.15189 -6.97621,19.17812 -10.25,13.04296 l -6.23633,14.70313 c 10.77354,-7.52251 23.32617,-22.25781 23.32617,-22.25781 -2.46644,-1.34646 -3.61675,-10.33889 -4.45312,-17.32032 -0.18407,5.73336 -10.51083,20.67935 -16.75,10.91993 9.67778,3.67993 12.68947,-8.05918 15.84375,-17.6836 -12.13266,3.79907 -16.21988,7.69716 -18.58594,13.28516 -0.11036,-0.0733 -0.25166,-0.0714 -0.35938,-0.15039 -5.16317,-3.8363 -2.93949,-10.2581 2.77735,-11.85352 1.95273,-4.05543 0.88271,-9.85052 -3.00586,-12.54101 -2.06895,-1.38894 -5.07454,-2.29905 -9.14649,-2.51172 z m -411.72265,0.0371 v 3.04101 h 407.66601 v -3.04101 z m -26.52149,19.74414 c 3.15852,1.53418 8.04611,4.02768 9.51953,8.22265 -6.42801,2.08109 -7.40409,-4.15974 -9.51953,-8.22265 z m 460.70703,0 c -2.11541,4.06291 -3.09149,10.30374 -9.51953,8.22265 1.47345,-4.19497 6.36104,-6.68847 9.51953,-8.22265 z m -490.77148,32.26758 c -1.08215,2.59328 -9.90528,4.67332 -16.76172,6.23242 5.72141,-0.41416 21.65995,8.30159 12.60352,15.52344 2.65183,-10.00846 -9.33567,-11.78337 -19.23633,-13.91797 5.04223,11.67091 9.34625,15.33043 15.15039,17.10156 -0.0616,0.11754 -0.046,0.25777 -0.11328,0.37305 -3.27757,5.5347 -9.89395,3.9922 -12.07617,-1.52735 -4.23682,-1.51971 -9.89126,0.14934 -12.16211,4.29688 -1.16591,2.2024 -1.76552,5.11552 -1.55274,9.1875 h 3.26172 c -0.66383,-6.02642 2.31239,-11.2053 7.98633,-10.14453 3.29246,8.21348 15.94401,6.73166 17.71094,-1.4043 11.79193,-4.523 6.80207,-15.64527 0.44336,-18.3457 4.66473,-4.92061 19.79985,4.94083 14.03906,8.83593 L 161,508.54688 c -8.60383,-9.93136 -24.56836,-20.88086 -24.56836,-20.88086 z m 520.83594,0 c 0,0 -15.96453,10.9495 -24.56836,20.88086 l 15.27539,-4.66993 c -5.76079,-3.8951 9.37433,-13.75654 14.03906,-8.83593 -6.35871,2.70043 -11.34858,13.8227 0.44336,18.3457 1.76693,8.13596 14.41848,9.61778 17.71094,1.4043 5.67394,-1.06077 8.65016,4.11811 7.98633,10.14453 h 3.26172 c 0.21278,-4.07198 -0.38683,-6.9851 -1.55274,-9.1875 -2.27085,-4.14754 -7.9253,-5.81659 -12.16211,-4.29688 -2.18222,5.51955 -8.7986,7.06205 -12.07617,1.52735 -0.0673,-0.11528 -0.0517,-0.25551 -0.11328,-0.37305 5.80414,-1.77113 10.10816,-5.43065 15.15039,-17.10156 -9.90066,2.1346 -21.88816,3.90951 -19.23633,13.91797 -9.05643,-7.22185 6.88211,-15.9376 12.60352,-15.52344 -6.85644,-1.5591 -15.67957,-3.63914 -16.76172,-6.23242 z M 119.625,500.70312 c 4.26119,1.6808 10.56813,2.00147 9.16797,8.61133 -4.32567,-1.02844 -7.31309,-5.62981 -9.16797,-8.61133 z m 554.44922,0 c -1.85488,2.98152 -4.8423,7.58289 -9.16797,8.61133 -1.40016,-6.60986 4.90678,-6.93053 9.16797,-8.61133 z M 102.34375,529.9668 v 210.30859 h 3.30664 V 529.9668 Z m 585.70508,0 v 210.30859 h 3.30664 V 529.9668 Z M 102.2832,745.2207 c -0.21278,4.07199 0.38683,7.07107 1.55274,9.27344 2.27085,4.14762 7.92529,5.81659 12.16211,4.29688 2.18222,-5.51955 8.7986,-7.06201 12.07617,-1.52735 0.0673,0.11528 0.0517,0.25551 0.11328,0.37305 -5.80414,1.77112 -10.10816,5.43064 -15.15039,17.10156 9.90066,-2.1346 21.88816,-3.90951 19.23633,-13.91797 9.05643,7.22185 -6.88211,15.9376 -12.60352,15.52344 6.85644,1.55909 15.67957,3.63914 16.76172,6.23242 0,0 15.96453,-10.94947 24.56836,-20.88086 l -15.27539,4.66992 c 5.76079,3.89511 -9.37433,13.75655 -14.03906,8.83594 6.35871,-2.70043 11.34857,-13.8227 -0.44336,-18.3457 -1.76694,-8.13596 -14.41848,-9.61778 -17.71094,-1.4043 -5.67394,1.06076 -8.65016,-4.03217 -7.98633,-10.05859 z m 589.13282,0 -3.26172,0.17188 c 0.6638,6.02642 -2.31239,11.11935 -7.98633,10.05859 -3.29246,-8.21348 -15.94401,-6.73166 -17.71094,1.4043 -11.79194,4.523 -6.80207,15.64527 -0.44336,18.3457 -4.66473,4.92061 -19.79985,-4.94083 -14.03906,-8.83594 l -15.27539,-4.66992 c 8.60383,9.93139 24.56836,20.88086 24.56836,20.88086 1.08211,-2.59328 9.90528,-4.67333 16.76172,-6.23242 -5.72141,0.41416 -21.65995,-8.30159 -12.60352,-15.52344 -2.65183,10.00846 9.33567,11.78337 19.23633,13.91797 -5.04223,-11.67092 -9.34625,-15.33044 -15.15039,-17.10156 0.0616,-0.11754 0.046,-0.25777 0.11328,-0.37305 3.27757,-5.53466 9.89395,-3.9922 12.07617,1.52735 4.23681,1.51971 9.89126,-0.14934 12.16211,-4.29688 1.16591,-2.20237 1.76552,-5.20145 1.55274,-9.27344 z m -562.62305,15.70703 c 1.40016,6.60987 -4.90678,6.93054 -9.16797,8.61133 1.85488,-2.98152 4.8423,-7.58292 9.16797,-8.61133 z m 536.11328,0 c 4.32567,1.02841 7.31309,5.62981 9.16797,8.61133 -4.26119,-1.68079 -10.56813,-2.00146 -9.16797,-8.61133 z m -486.30078,13.58399 c -10.77354,7.52251 -23.32617,22.25781 -23.32617,22.25781 2.46644,1.34646 3.61675,10.33888 4.45312,17.32031 0.18406,-5.73335 10.51083,-20.67934 16.75,-10.91992 -9.67778,-3.6799 -12.68947,8.05918 -15.84375,17.6836 12.13266,-3.79907 16.21988,-7.69717 18.58594,-13.28516 0.11036,0.0733 0.25166,0.0714 0.35937,0.15039 5.16319,3.8363 2.9395,10.2581 -2.77734,11.85352 -1.95273,4.05543 -0.88271,9.85055 3.00586,12.54101 2.06895,1.38894 5.07257,2.29893 9.14453,2.51172 v -3.26367 c -6.06274,0.034 -10.72997,-3.45765 -9.08398,-8.99024 8.51175,-2.41893 8.35494,-15.15491 0.44726,-17.75976 -3.27008,-12.19896 -14.85307,-8.39634 -18.20117,-2.35352 -4.40795,-5.15191 6.97621,-19.17812 10.25,-13.04297 z m 436.48828,0 6.23633,14.70312 c 3.27379,-6.13515 14.65795,7.89106 10.25,13.04297 -3.3481,-6.04282 -14.93109,-9.84544 -18.20117,2.35352 -7.90768,2.60485 -8.0645,15.34083 0.44726,17.75976 1.64599,5.53259 -3.0232,9.02425 -9.08594,8.99024 v 3.26367 c 4.07195,-0.21267 7.07754,-1.12278 9.14649,-2.51172 3.88857,-2.69046 4.95859,-8.48558 3.00586,-12.54101 -5.71684,-1.59542 -7.94052,-8.01722 -2.77735,-11.85352 0.10772,-0.079 0.24902,-0.0771 0.35938,-0.15039 2.36606,5.58799 6.45328,9.48609 18.58594,13.28516 -3.15428,-9.62442 -6.16597,-21.3635 -15.84375,-17.6836 6.23917,-9.75942 16.56593,5.18657 16.75,10.91992 0.83637,-6.98143 1.98668,-15.97385 4.45312,-17.32031 0,0 -12.55263,-14.7353 -23.32617,-22.25781 z m -441.24609,31.69922 c 0.646,0.0206 1.36447,0.15002 2.16796,0.41015 -1.47343,4.19498 -6.36101,6.68851 -9.51953,8.22266 1.85101,-3.55502 2.82954,-8.77689 7.35157,-8.63281 z m 446.0039,0 c 4.52203,-0.14408 5.50057,5.07779 7.35156,8.63281 -3.1585,-1.53415 -8.04608,-4.02768 -9.51953,-8.22266 0.80351,-0.26013 1.52197,-0.38957 2.16797,-0.41015 z m -426.83398,25.33594 v 3.04101 h 407.66601 v -3.04101 z"
       id="path2058"
       transform="scale(0.26458333)"
       inkscape:connector-curvature="0" />
  </g>
</svg>
