<?xml version="1.0" encoding="UTF-8" standalone="no"?>
<!-- Created with Inkscape (http://www.inkscape.org/) -->

<svg
   xmlns:dc="http://purl.org/dc/elements/1.1/"
   xmlns:cc="http://creativecommons.org/ns#"
   xmlns:rdf="http://www.w3.org/1999/02/22-rdf-syntax-ns#"
   xmlns:svg="http://www.w3.org/2000/svg"
   xmlns="http://www.w3.org/2000/svg"
   xmlns:sodipodi="http://sodipodi.sourceforge.net/DTD/sodipodi-0.dtd"
   xmlns:inkscape="http://www.inkscape.org/namespaces/inkscape"
   width="55.131969mm"
   height="78.58667mm"
   viewBox="0 0 55.13197 78.58667"
   version="1.1"
   id="svg975"
   inkscape:version="0.92.4 (5da689c313, 2019-01-14)"
   sodipodi:docname="marker_icon.svg"
   enable-background="new">
  <defs
     id="defs969">
    <filter
       inkscape:collect="always"
       style="color-interpolation-filters:sRGB"
       id="filter4590">
      <feBlend
         inkscape:collect="always"
         mode="multiply"
         in2="BackgroundImage"
         id="feBlend4592" />
    </filter>
  </defs>
  <sodipodi:namedview
     id="base"
     pagecolor="#ffffff"
     bordercolor="#666666"
     borderopacity="1.0"
     inkscape:pageopacity="0.0"
     inkscape:pageshadow="2"
     inkscape:zoom="1.979899"
     inkscape:cx="31.164405"
     inkscape:cy="155.37958"
     inkscape:document-units="mm"
     inkscape:current-layer="layer3"
     showgrid="false"
     inkscape:window-width="1475"
     inkscape:window-height="907"
     inkscape:window-x="4078"
     inkscape:window-y="250"
     inkscape:window-maximized="0" />
  <metadata
     id="metadata972">
    <rdf:RDF>
      <cc:Work
         rdf:about="">
        <dc:format>image/svg+xml</dc:format>
        <dc:type
           rdf:resource="http://purl.org/dc/dcmitype/StillImage" />
        <dc:title />
      </cc:Work>
    </rdf:RDF>
  </metadata>
  <g
     inkscape:groupmode="layer"
     id="layer3"
     inkscape:label="Layer 3"
     style="display:inline;opacity:0.95999995;filter:url(#filter4590)">
     <!-- <svg width="400" height="110">
       <rect width="300" height="100" style="fill:rgb(0,0,0);stroke-width:3;stroke:rgb(0,0,0)" />
     </svg> -->
    <g
       id="g4553"
       transform-origin="center">
       <animateTransform attributeType="xml"
                           attributeName="transform"
                           type="rotate"
                           dur="1s"
                           repeatCount="indefinite"
                           calcMode="discrete"
                           values="0 0 0; -40 0 0; -80 0 0; -120 0 0; -160 0 0; -200 0 0; -240 0 0; -280 0 0; -320 0 0"/>
      <path
         id="path1529"
         d="m 38.912828,39.034478 c -0.441439,-0.527481 -0.995317,-0.825827 -1.662057,-0.883846 -0.666741,-0.05802 -1.249689,0.130139 -1.775675,0.570647 -0.525671,0.440497 -0.81137,0.997441 -0.869385,1.664142 -0.05801,0.666701 0.124809,1.253188 0.556995,1.774254 0.438089,0.527185 0.996531,0.811879 1.663505,0.869918 0.666974,0.05804 1.262856,-0.12903 1.788528,-0.569528 0.525955,-0.443302 0.810195,-0.98349 0.868214,-1.650233 0.05801,-0.666702 -0.128402,-1.250675 -0.570125,-1.775354 z"
         inkscape:connector-curvature="0"
         style="display:inline;fill:#cccccc;stroke-width:0.03909689" />
      <path
         id="path1531"
         d="m 33.688461,45.021903 c -0.627635,-0.05461 -1.168894,0.109068 -1.638083,0.503895 -0.468904,0.392025 -0.722527,0.884335 -0.775933,1.498067 -0.05364,0.616453 0.106569,1.158829 0.502844,1.640225 0.390588,0.469644 0.899033,0.721849 1.526668,0.776465 0.614509,0.05348 1.142643,-0.111352 1.611587,-0.503379 0.483488,-0.407631 0.751209,-0.909978 0.804852,-1.526432 0.0534,-0.61373 -0.127819,-1.141016 -0.531763,-1.611859 -0.397531,-0.467421 -0.885663,-0.723508 -1.500172,-0.776982 z"
         inkscape:connector-curvature="0"
         style="display:inline;fill:#b3b3b3;stroke-width:0.03909689" />
      <path
         id="path1533"
         d="m 34.776644,36.302333 c 0.719128,0.06258 1.36958,-0.145018 1.938029,-0.621155 0.56869,-0.478903 0.8847,-1.083831 0.948297,-1.814683 0.06481,-0.744835 -0.142232,-1.39524 -0.619382,-1.96515 -0.465508,-0.554848 -1.070567,-0.868908 -1.802821,-0.932628 -0.74538,-0.06486 -1.395592,0.139966 -1.949943,0.606068 -0.568688,0.478903 -0.8847,1.083831 -0.949511,1.828627 -0.0636,0.730853 0.143451,1.381257 0.620596,1.951207 0.477623,0.567164 1.082481,0.883994 1.814735,0.947714 z"
         inkscape:connector-curvature="0"
         style="display:inline;fill:#e6e6e6;fill-opacity:1;stroke-width:0.03909689" />
      <path
         id="path1535"
         d="m 26.537451,47.258054 c -0.549269,-0.04779 -1.03996,0.103454 -1.463263,0.465738 -0.416188,0.354461 -0.650216,0.811903 -0.699249,1.375387 -0.04782,0.549541 0.10395,1.040548 0.453593,1.447646 0.355649,0.418803 0.812839,0.652537 1.361796,0.700306 0.562355,0.04893 1.047114,-0.111272 1.462329,-0.454555 0.422363,-0.348317 0.662089,-0.796823 0.709913,-1.3464 0.04903,-0.563484 -0.105088,-1.0631 -0.463044,-1.490576 -0.346086,-0.412358 -0.79968,-0.648607 -1.362075,-0.697546 z"
         inkscape:connector-curvature="0"
         style="display:inline;fill:#808080;stroke-width:0.03909689" />
      <path
         id="path1537"
         d="m 28.270384,27.343508 c -0.797535,-0.0694 -1.501666,0.147572 -2.112541,0.65938 -0.611389,0.51455 -0.943922,1.157363 -1.013346,1.95517 -0.06942,0.797807 0.144853,1.513516 0.658217,2.1259 0.513563,0.609656 1.16936,0.944967 1.966895,1.014366 0.797533,0.0694 1.501664,-0.147571 2.11254,-0.659379 0.61139,-0.51455 0.959196,-1.181348 1.028616,-1.979115 0.06942,-0.797768 -0.160165,-1.489535 -0.673488,-2.101956 -0.513289,-0.609631 -1.169359,-0.944966 -1.966893,-1.014366 z"
         inkscape:connector-curvature="0"
         style="display:inline;fill:#ffffff;stroke-width:0.03909689" />
      <path
         id="path1539"
         d="m 20.771782,33.7261 c 0.353157,0.03073 0.68975,-0.05803 0.974465,-0.297445 0.568721,-0.476116 0.642758,-1.326932 0.16482,-1.894086 -0.239119,-0.285001 -0.555283,-0.430562 -0.90844,-0.461293 -0.340031,-0.02959 -0.672663,0.06234 -0.961379,0.298585 -0.590667,0.479816 -0.663732,1.319455 -0.16482,1.894085 0.243567,0.282603 0.555595,0.430589 0.895354,0.460154 z"
         inkscape:connector-curvature="0"
         style="display:inline;fill:#333333;stroke-width:0.03909689" />
      <path
         id="path1541"
         d="m 19.869509,44.094859 c -0.483678,-0.04209 -0.912233,0.11174 -1.302157,0.429127 -0.375342,0.301781 -0.587868,0.699282 -0.629864,1.181906 -0.04223,0.485352 0.09125,0.918575 0.41382,1.300827 0.322327,0.385016 0.724987,0.602742 1.208702,0.644834 0.483717,0.04209 0.917931,-0.102809 1.301917,-0.426363 0.383743,-0.320754 0.590056,-0.724446 0.632291,-1.209798 0.042,-0.482623 -0.09864,-0.910818 -0.416247,-1.272935 -0.329242,-0.379969 -0.724435,-0.605479 -1.208462,-0.647598 z"
         inkscape:connector-curvature="0"
         style="display:inline;fill:#666666;stroke-width:0.03909689" />
      <path
         id="path1543"
         d="m 18.382794,37.866323 c -0.274514,-0.327443 -0.614079,-0.514366 -1.045603,-0.551917 -0.431523,-0.03755 -0.824213,0.08565 -1.15116,0.360758 -0.326946,0.275105 -0.502664,0.628009 -0.540286,1.060354 -0.03738,0.429575 0.07352,0.821505 0.348036,1.148953 0.274518,0.327401 0.64099,0.505482 1.072513,0.543033 0.431524,0.03755 0.797034,-0.07683 1.12425,-0.351873 0.326909,-0.275114 0.516969,-0.640855 0.55435,-1.07043 0.03735,-0.432369 -0.08762,-0.811475 -0.3621,-1.138878 z"
         inkscape:connector-curvature="0"
         style="display:inline;fill:#4d4d4d;stroke-width:0.03909689" />
    </g>
    <path
       sodipodi:nodetypes="ccsc"
       inkscape:connector-curvature="0"
       id="path5011"
       d="m 10.339071,38.662955 c -0.0097,8.668152 4.348442,15.82674 17.224932,16.551606 34.337703,-1.933014 8.097173,-49.6343993 0,-49.6343993 -5.060709,0 -17.208937,18.6358403 -17.224932,33.0827933 z"
       style="fill:none;fill-opacity:1;fill-rule:evenodd;stroke:#ffffff;stroke-width:1.10032332;stroke-miterlimit:4;stroke-dasharray:none;stroke-opacity:1" />
  </g>
</svg>
